<svg xmlns="http://www.w3.org/2000/svg" width="146.455" height="146.631" viewBox="0 0 146.455 146.631">
    <g data-name="Group 9126">
        <g data-name="Group 383">
            <path data-name="Path 7991" d="M1188.283 545.189c-14.043.841-26.772-2.7-37.929-11.423-29.807-23.312-26.777-69.372 5.886-88.535a8.582 8.582 0 0 0 4.466-5.9 53.29 53.29 0 0 1 52.144-40.624c8.323-.027 16.655-.392 24.8 2.063 20.95 6.311 36.453 24.3 38.305 46.211 1.934 22.875-7.516 40.441-27.206 52.318a6.107 6.107 0 0 0-3.172 4.364 53.7 53.7 0 0 1-51.5 41.518c-1.93.019-3.862.008-5.794.008zm42.13-104.513c3.523-3.4 7.2-6.5 10.308-10.083 3.222-3.71 6.751-5.958 11.8-5.112.1.017.243-.242.487-.5a51.492 51.492 0 0 0-14-13.7c-3.55-2.451-4.346 1.136-5.925 2.54-2.081 1.85.2 2.605 1.375 3.556a7.368 7.368 0 0 1-8.193 12.184c-3.353-1.927-4.888-6.182-3.042-9.462 1.583-2.814 4.8-4.64 4.922-8.4.02-.6 1.063-1.162 1.619-1.753.672-.716 1.33-1.445 2.689-2.926l-19.667-4.028c0 7.012-.1 13.09.075 19.16a6.4 6.4 0 0 0 1.626 3.915c4 4.16 8.209 8.125 12.332 12.152l-3.536 3.906c-4.528-4.56-8.739-8.958-13.14-13.156a7.215 7.215 0 0 1-2.33-5.918c.138-6.274.046-12.552.046-19.008a45.09 45.09 0 0 0-18.239 5.507 2.575 2.575 0 0 0-1.175 1.251c-1.214 3.569 2.3 7.923 6 7.5 4.649-.529 8.409 2.524 8.559 6.95a7.236 7.236 0 0 1-7.619 7.638 7.131 7.131 0 0 1-6.885-8.528c.291-1.831-.388-2.73-1.432-3.916-1.631-1.853-3.019-3.921-4.7-6.151l-4.92 4.422c5.216 3.558 7.539 8.061 5.6 14.017h-4.49c.462-4.253-.019-8.006-4.368-9.909-4.384 5.235-8.238 13.56-8.142 17.327 4.451-.766 8.905-1.839 13.42-2.227 4.645-.4 9.346-.172 14.023-.151a53.505 53.505 0 0 1 51.021 37.732c1.121 3.619 1.776 7.382 2.712 11.36a47.476 47.476 0 0 0 12.8-22.668c-3.931 1.621-5.7-.867-7.707-2.889-.931-.939-1.934-1.814-2.788-2.817a3.664 3.664 0 0 0-3.914-1.325 7.064 7.064 0 0 1-8.425-6.665 7.265 7.265 0 0 1 7.405-7.855 7.068 7.068 0 0 1 7.108 8.323c-.376 2.118.378 3.179 1.673 4.37a26.06 26.06 0 0 0 2.834 2.758 33.335 33.335 0 0 0 4.311 2.09c1.953-7.695 1.009-16.989-2.532-25.759-.587-1.452-1.794-3.744-2.742-3.758-2.957-.044-6.256-1.439-8.9 1.4-3.934 4.227-8.032 8.3-12.1 12.484zm-95.742 50.756c-.12 26.531 21.806 48.674 48.379 48.854a49.021 49.021 0 0 0 49.234-48.61c.126-26.737-21.855-48.936-48.524-49.006a49.031 49.031 0 0 0-49.089 48.762zm136.548-41.617c-.17-1.756-.291-3.164-.449-4.568-.068-.6-.2-1.2-.323-1.792-.776-3.74-1.1-3.909-5.075-2.71l1.327 9.07zm-4.568 5.167-1.373 10.322c1.981-.8 4.289-1.047 4.622-1.991.9-2.565.966-5.425 1.385-8.331zm-30.6 24.612 1.348 9.288c1.04.052 1.936.122 2.832.131a12.928 12.928 0 0 0 1.473-.147 4.422 4.422 0 0 0 .159-1c-.171-1.613-.3-3.236-.583-4.83-.741-4.127-.771-4.122-5.23-3.443zm-.09 24.456c1.815-.53 4.267-.611 4.563-1.451.934-2.656 1.062-5.6 1.51-8.478h-4.666c-.452 3.179-.876 6.171-1.408 9.928zm23.8-24.942c3.933.2 7.36-4.1 7.906-10.109-1.6.615-3.569.75-4.163 1.726a66 66 0 0 0-3.744 8.382zm-21.061 29.035c-1.807.514-3.854.482-4.378 1.36a71.919 71.919 0 0 0-3.865 8.656c4.072.209 6.25-2.384 8.243-10.016zm20.978-82.349c.98 2.143 2.246 4.139 2.8 6.317.786 3.061 2.469 3.816 5.258 3-1.2-6.206-4.092-9.649-8.063-9.317zm-29.32 39.033c1.027 2.241 2.239 4.172 2.8 6.277.8 3.009 2.451 3.9 5.293 3.062-1.379-6.402-3.998-9.602-8.097-9.339zm17.807-54.239-.507.594c2.422 2.633 4.76 5.35 7.31 7.852.937.92 2.372 1.331 3.58 1.975l.7-1.142zm-29.244 39.055-.555.6c2.391 2.6 4.7 5.281 7.215 7.755a17.2 17.2 0 0 0 3.634 2.157L1230 459zm28.525 43.642.783 1 11.018-9.407-.844-.993c-5.153 1.345-6.549 7.176-10.962 9.4zm-29.329 39.042.781 1.01 11.066-9.406-.827-.976c-5.262 1.223-6.554 7.205-11.025 9.373zm15.1-109.31c-1.556-1.051-2.627-2.3-3.32-2.114-.951.251-1.617 1.586-2.405 2.456.844.715 1.666 1.954 2.54 1.993.821.037 1.705-1.187 3.178-2.335zm-37.413 5.855c1.031-1.543 2.169-2.5 2.081-3.323-.091-.853-1.372-1.579-2.133-2.361-.809.837-2.09 1.585-2.27 2.54-.14.703 1.169 1.677 2.318 3.145zm52.065 21.231c-1.471-1.14-2.342-2.341-3.172-2.313-.86.028-1.681 1.248-2.518 1.946.774.873 1.422 2.209 2.363 2.465.68.187 1.758-1.05 3.321-2.101z" transform="translate(-1129.752 -398.678)" style="fill:#83a2cb"/>
            <path data-name="Path 7992" d="M1233.6 522.38c0 24.593-19.616 43.9-44.648 43.947-23.242.044-43.29-19.984-43.26-43.216.032-25.032 19.336-44.683 43.9-44.694a43.841 43.841 0 0 1 44.008 43.963zm-4.912.037a39.12 39.12 0 0 0-39.58-39.092c-21.106.11-38.632 17.992-38.5 39.276a39.205 39.205 0 0 0 39.277 38.806c21.261-.133 39.027-17.986 38.799-38.99z" transform="translate(-1135.924 -429.563)" style="fill:#83a2cb"/>
            <path data-name="Path 7993" d="m1229.413 513.533 3.641-2.786c10.134 8.333 14.724 27.542 4.829 42.767-10.178 15.659-29.933 18.8-41.811 12.666l1.695-4.026c15.578 4.566 28.687 1.2 36.889-13.332 7.059-12.515 4.321-24.458-5.243-35.289z" transform="translate(-1155.439 -442.085)" style="fill:#83a2cb"/>
            <path data-name="Path 7994" d="m1203.761 495.371-1.074 4.323c-15.694-1.958-27.8 3.229-33.906 18.143-5.135 12.537-1.548 23.665 8.169 33.141-.405.6-.806 1.266-1.287 1.873s-1.059 1.175-1.576 1.741c-11.917-8.485-15.917-26.942-9.011-41.079 7.044-14.42 24.085-22.527 38.685-18.142z" transform="translate(-1142.124 -435.668)" style="fill:#83a2cb"/>
            <path data-name="Path 7995" d="m1230.127 552.661-3.02-3.414c6.826-7.42 8.642-15.64 3.673-24.388-4.491-7.907-11.851-10.61-21.039-9.432l-1.151-4.178c7.627-3.834 20.611 1.405 26.206 10.463 6.284 10.174 4.212 24.239-4.669 30.949z" transform="translate(-1160.287 -441.787)" style="fill:#83a2cb"/>
            <path data-name="Path 7996" d="m1186.641 519.2 3 3.622c-6.261 6.055-8.994 13.254-6 21.738 2.954 8.366 9.375 12.41 18.16 13.21v4.49c-8.533 1.07-18.385-5.354-22.333-14.467a24.245 24.245 0 0 1 7.173-28.593z" transform="translate(-1148.232 -445.357)" style="fill:#83a2cb"/>
            <path data-name="Path 7997" d="m1216.907 529.272-2.639 3.5c-10.792-3.655-17.06 1.224-15.24 12.1l-3.9 1.772c-3.162-3.927-1.652-12.209 2.848-16.388a14.517 14.517 0 0 1 18.931-.984z" transform="translate(-1154.424 -448.082)" style="fill:#83a2cb"/>
            <path data-name="Path 7998" d="m1207.951 563.526 1.716-3.968c8.121 1.271 12.3-1.286 14.086-9.171h4.387c1.343 7.613-8.84 18.266-20.189 13.139z" transform="translate(-1160.04 -457.439)" style="fill:#83a2cb"/>
        </g>
    </g>
</svg>
