<svg xmlns="http://www.w3.org/2000/svg" width="144.347" height="146.632" viewBox="0 0 144.347 146.632">
    <g data-name="Group 9124">
        <path data-name="Path 7980" d="M934.356 95.093v-4.87h114.415c2.773 0 3.406.648 3.406 3.464V138.3h-4.923v-1.87c0-13.18-.022-26.36.026-39.54.005-1.364-.326-1.795-1.742-1.779-6.864.076-13.729.065-20.594.013-1.195-.009-1.53.331-1.528 1.527q.054 27.211 0 54.423c0 1.268.385 1.605 1.618 1.6 6.814-.054 13.63-.072 20.443.008 1.515.018 1.858-.507 1.8-1.9-.1-2.5-.028-5-.028-7.628h4.8c.042.406.115.783.115 1.16q.013 5.187 0 10.374c-.006 2.066-.832 2.878-2.932 2.879q-17.963.007-35.927 0h-1.505a83.753 83.753 0 0 1 1.658 8.292c1.135 11.361-2.5 21.026-10.917 28.746a10.437 10.437 0 0 1-12.826.736c-.457-.3-.892-.634-1.472-1.048l-.978 3.344a17.3 17.3 0 0 1 8.546 9.342 19.135 19.135 0 0 1 1 8.726 6.3 6.3 0 0 0 2.327 5.733 7.035 7.035 0 0 1 1.942 8.467 6.961 6.961 0 0 1-6.76 4.619q-14.28.1-28.561 0a7.033 7.033 0 0 1-6.67-4.318 7.251 7.251 0 0 1 .86-7.786 3.2 3.2 0 0 1 .7-.783c2.258-1.56 2.782-3.7 2.584-6.355-.586-7.83 2.448-13.827 9.532-17.663l-.855-3.048a33.866 33.866 0 0 1-5.268 2.282 9.85 9.85 0 0 1-9.788-2.816q-14.746-14.871-8.826-35.021c.124-.424.273-.84.474-1.455h-30.884a9.63 9.63 0 0 1-1.875-19.1 10.75 10.75 0 0 1 2.094-.121q15.784-.011 31.568 0h1.687v-4.822h-33.447a9.628 9.628 0 0 1-1.925-19.1 10.552 10.552 0 0 1 2.093-.129q15.784-.011 31.568-.005h1.7v-4.822h-33.418a9.612 9.612 0 0 1-1.97-19.062 27.651 27.651 0 0 1 4.943-.163c2.9-.02 5.792-.006 8.8-.006V95c-.52.024-1.007.066-1.493.067-3.357.006-6.714-.015-10.072.01-2.981.022-5.126 2.016-5.152 4.733a4.871 4.871 0 0 0 5.1 4.8c.5.008 1 0 1.5 0h33.522c2.371 0 3.158.78 3.163 3.126q.009 4.209 0 8.419c-.007 2.129-.858 2.966-3.027 2.966q-17.062.005-34.123 0c-.5 0-1-.02-1.5.013a4.763 4.763 0 0 0 .082 9.523c.55.029 1.1.008 1.653.008h33.672c2.477 0 3.241.755 3.245 3.194 0 2.806.012 5.613 0 8.419-.009 2.034-.881 2.9-2.944 2.9q-17.513.008-35.025 0c-2.436 0-4.18 1.067-4.946 2.968-1.311 3.249 1.023 6.545 4.713 6.563 6.514.032 13.028.009 19.542.009h13.98c3.181 0 4.12 1.525 2.739 4.419a28.749 28.749 0 0 0 5.755 32.963c2.711 2.679 6.346 2.816 8.794.331s2.286-5.97-.366-8.7c-8.266-8.5-6.221-21.914 4.145-27.189a16.884 16.884 0 0 1 19.993 26.563 17.13 17.13 0 0 0-1.7 1.9 5.935 5.935 0 0 0 9.013 7.6 28.9 28.9 0 0 0 6.51-32.948c-.168-.363-.347-.722-.508-1.088-.956-2.172.079-3.819 2.436-3.848 1.7-.021 3.407 0 5.111 0h5.085V95.093zm45.7 134.537v-.006h13.225c1.312 0 2.515-.236 3.126-1.594.629-1.4-.1-2.385-1.03-3.307a17.715 17.715 0 0 1-2.3-2.365 6.063 6.063 0 0 1-1.111-2.773c-.217-2.739-.061-5.509-.326-8.241a11.743 11.743 0 0 0-23.141-.948 30.944 30.944 0 0 0-.382 5.977c-.133 6 .78 3.968-3.423 8.307-.9.927-1.728 1.86-1.1 3.284s1.861 1.672 3.234 1.67q6.619-.012 13.231-.005zm4.731-43.257c.013-3.517 1.581-6.214 3.985-8.617a11.228 11.228 0 0 0 3.243-8.609 12 12 0 0 0-22.361-5.585 11.8 11.8 0 0 0 1.687 14.283 12.131 12.131 0 0 1 3.907 8.527z" style="fill:#bfa271" transform="translate(-907.832 -90.2)"/>
        <path data-name="Path 7981" d="M1314.069 248.293a7.338 7.338 0 1 1 7.426-7.164 7.127 7.127 0 0 1-7.426 7.164z" transform="translate(-1186.65 -190.422)" style="fill:#bfa271"/>
        <path data-name="Path 7982" d="m968.13 422.825 2.189-4.344 24.076 12.04-2.168 4.348z" transform="translate(-949.969 -319.605)" style="fill:#bfa271"/>
        <path data-name="Path 7983" d="m1239.67 430.543 24.072-12.044 2.2 4.332-24.091 12.058z" transform="translate(-1139.723 -319.618)" style="fill:#bfa271"/>
        <path data-name="Path 7984" d="m970.557 544.2-1.824-4.515 24.07-9.64 1.848 4.5z" transform="translate(-950.39 -397.565)" style="fill:#bfa271"/>
        <path data-name="Path 7985" d="m1266.191 539.656-1.81 4.515-24.088-9.623 1.8-4.518z" transform="translate(-1140.159 -397.556)" style="fill:#bfa271"/>
        <path data-name="Path 7986" d="M1001.652 489.96v4.632h-21.446v-4.632z" transform="translate(-958.407 -369.555)" style="fill:#bfa271"/>
        <path data-name="Path 7987" d="M1243.6 494.5v-4.632h21.446v4.632z" transform="translate(-1142.471 -369.493)" style="fill:#bfa271"/>
        <path data-name="Path 7988" d="M948.282 489.739h4.563v4.669h-4.562z" transform="translate(-936.099 -369.401)" style="fill:#bfa271"/>
        <path data-name="Path 7989" d="M1331.6 489.81h4.589v4.669h-4.589z" transform="translate(-1203.964 -369.45)" style="fill:#bfa271"/>
        <path data-name="Path 7990" d="M1140.853 481.373v5h-4.38l-.125.5c.676.425 1.355.845 2.028 1.276a5.464 5.464 0 0 1 2.525 5.679 5.209 5.209 0 0 1-4.036 4.355 39.431 39.431 0 0 1-5.66.056v-4.987h4.293l.137-.527-1.915-1.186a5.506 5.506 0 0 1-2.621-5.779 5.231 5.231 0 0 1 4.054-4.34 42.047 42.047 0 0 1 5.7-.047z" transform="translate(-1063.811 -363.502)" style="fill:#bfa271"/>
    </g>
</svg>
