<svg xmlns="http://www.w3.org/2000/svg" width="146.648" height="146.688" viewBox="0 0 146.648 146.688">
    <g data-name="Group 9125">
        <g data-name="Group 385">
            <path data-name="Path 7999" d="M881.653 318.29c8.7 0 17.4-.017 26.1.005 6.463.017 10.2 3.731 10.222 10.16.025 9.287-.057 18.574.077 27.859a6.927 6.927 0 0 0 1.544 4.092c7.871 9.156 7.118 22.513-1.836 30.223-9.159 7.887-22.322 6.7-30.365-2.606a5.077 5.077 0 0 0-3.386-1.55c-9.579-.123-19.16-.051-28.739-.078-6.28-.018-10.079-3.767-10.089-10q-.04-24.048 0-48.1c.011-6.238 3.8-9.986 10.078-10.006 8.798-.021 17.596.001 26.394.001zm31.514 16.7h-63.259c0 14.109-.035 27.985.028 41.861.014 3.041 1.932 4.759 5.107 4.8 4.79.064 9.581.019 14.372.019H883.8c-2.429-9.008-.748-16.694 6.022-22.771 6.853-6.151 14.813-6.752 23.341-3.458zm-9.407 23.329a16.333 16.333 0 1 0 16.457 16.358 16.429 16.429 0 0 0-16.457-16.356zm9.2-28.524c.334-4.582-1.249-6.642-5.15-6.65q-26.238-.063-52.476 0c-4.064.01-5.787 2.414-4.912 6.649z" transform="translate(-778.883 -317.782)" style="fill:#7bbfc6;stroke:#7bbfc6"/>
            <path data-name="Path 8000" d="M780.571 478.38c6.661 1.532 11.255 5.15 13.347 11.444a16.4 16.4 0 0 1-8.444 19.783 16.216 16.216 0 0 1-20.749-5.481 4.552 4.552 0 0 0-4.471-2.3c-7.627.132-15.259-.023-22.886.091-2.766.041-3.846-.938-3.814-3.758.108-9.389.028-18.779.045-28.169.015-8.016 4.684-12.663 12.762-12.745.747-.007 1.495 0 2.861 0-3.793-3.712-5.95-7.731-4.839-12.4a17.093 17.093 0 0 1 4.2-7.768c4.677-4.709 12.4-4.43 17.285.06 5.571 5.116 5.47 11.855-.526 20.109 1.248 0 2.275-.014 3.3 0 6.893.1 11.822 4.972 11.922 11.816.043 3.028.007 6.056.007 9.318zm-18.9 18.58c-.281-10.164 4.642-16.18 14.142-18.7v-1.876c0-2.444.069-4.89-.022-7.33a6.917 6.917 0 0 0-7.116-7.022q-11.582-.126-23.165 0c-4.275.048-7.078 2.961-7.141 7.292-.074 4.984-.02 9.97-.021 14.955v12.683zm28.2-2.182a11.657 11.657 0 1 0-11.759 11.7 11.771 11.771 0 0 0 11.761-11.7zm-24.656-48.027a8.135 8.135 0 1 0-8.347 8.07 8.226 8.226 0 0 0 8.349-8.07z" transform="translate(-733.052 -365.158)" style="fill:#7bbfc6;stroke:#7bbfc6"/>
            <path data-name="Path 8001" d="M870.037 513.19c.261 1.392.592 2.7.737 4.037.262 2.407-1.04 3.626-3.277 2.94-4.1-1.259-8.186-2.6-12.223-4.052-2.437-.879-2.817-2.647-.983-4.479 2.9-2.9 5.906-5.707 8.925-8.489 2.338-2.155 3.9-1.65 4.773 1.46.314 1.118.572 2.251.964 3.811 22.861-6.354 37.258-20.866 43.787-43.612l4.642 1.077c-7.029 24.761-22.753 40.327-47.345 47.307zm-9.334-.552 4.217 1.4-.968-4.613z" transform="translate(-782.159 -377.95)" style="fill:#7bbfc6;stroke:#7bbfc6"/>
            <path data-name="Path 8002" d="m755.938 384.493-3.586-.869c4.406-17.233 14.065-30.273 28.98-39.745-.526-1.568-1.107-3.1-1.549-4.663-.674-2.392.609-3.851 3.072-3.386q6.185 1.167 12.324 2.573c2.687.62 3.278 2.332 1.56 4.48-2.442 3.053-4.981 6.027-7.515 9-2.38 2.8-4.045 2.465-5.4-1.023-.242-.621-.5-1.236-.881-2.169-6.773 4.07-12.482 9.118-16.491 15.612-3.908 6.333-6.928 13.209-10.514 20.19zm29.971-42.877 1.64 4.492 3-3.593z" transform="translate(-740.772 -324.953)" style="fill:#7bbfc6;stroke:#7bbfc6"/>
            <path data-name="Path 8003" d="M896.167 362.494v4.268h-6.815v-4.268z" transform="translate(-797.029 -335.937)" style="fill:#7bbfc6;stroke:#7bbfc6"/>
            <path data-name="Path 8004" d="M919.867 366.832H913.2v-4.469h6.667z" transform="translate(-806.822 -335.883)" style="fill:#7bbfc6;stroke:#7bbfc6"/>
            <path data-name="Path 8005" d="M943.781 366.853h-6.728v-4.37h6.728z" transform="translate(-816.617 -335.933)" style="fill:#7bbfc6;stroke:#7bbfc6"/>
            <path data-name="Path 8006" d="M872.157 386.752h-6.719v-4.424h6.719z" transform="translate(-787.209 -344.082)" style="fill:#7bbfc6;stroke:#7bbfc6"/>
            <path data-name="Path 8007" d="M895.971 386.774h-6.728V382.4h6.728z" transform="translate(-796.984 -344.113)" style="fill:#7bbfc6;stroke:#7bbfc6"/>
            <path data-name="Path 8008" d="M865.324 402.146h6.744v4.448h-6.744z" transform="translate(-787.162 -352.22)" style="fill:#7bbfc6;stroke:#7bbfc6"/>
            <path data-name="Path 8009" d="M895.962 406.79h-6.667v-4.59h6.667z" transform="translate(-797.005 -352.244)" style="fill:#7bbfc6;stroke:#7bbfc6"/>
            <path data-name="Path 8013" d="M779.86 458.57a1.465 1.465 0 0 1-1.039-.43l-4.007-4.007a1.469 1.469 0 1 1 2.078-2.078l2.968 2.968 5.877-5.877a1.469 1.469 0 0 1 2.078 2.078l-6.915 6.916a1.465 1.465 0 0 1-1.04.43z" transform="translate(-735.594 -323.72)" style="stroke-linecap:round;stroke-width:2px;fill:#7bbfc6;stroke:#7bbfc6"/>
        </g>
        <path data-name="Path 8012" d="M-1.194-23.905a4.064 4.064 0 0 1-.715 2.371A5.022 5.022 0 0 1-3.815-19.9a6.982 6.982 0 0 1-2.621.715l-.93 2.5a.959.959 0 0 1-.93.726 1.969 1.969 0 0 1-.953-.295.862.862 0 0 1-.522-.749 1.09 1.09 0 0 1 .272-.681l1.157-1.543a7.729 7.729 0 0 1-2.122-.545 6.936 6.936 0 0 1-1.849-1.18 1.593 1.593 0 0 1-.613-1.2 1.28 1.28 0 0 1 .386-.919 1.25 1.25 0 0 1 .93-.4 1.2 1.2 0 0 1 .771.272 6.68 6.68 0 0 0 1.77 1.089 5.552 5.552 0 0 0 2.042.34 4.086 4.086 0 0 0 2.19-.567 1.643 1.643 0 0 0 .919-1.407 1.8 1.8 0 0 0-.908-1.6 7.692 7.692 0 0 0-2.882-.874q-4.969-.726-4.969-4.629a4.182 4.182 0 0 1 .749-2.485 4.728 4.728 0 0 1 2.042-1.611A7.225 7.225 0 0 1-7-35.5a8.245 8.245 0 0 1 2.689.431 6.52 6.52 0 0 1 2.1 1.135 1.514 1.514 0 0 1 .658 1.2 1.28 1.28 0 0 1-.386.919 1.225 1.225 0 0 1-.908.4 1 1 0 0 1-.613-.2 5.993 5.993 0 0 0-1.645-.874A5.453 5.453 0 0 0-7-32.891a3.9 3.9 0 0 0-2.212.533 1.621 1.621 0 0 0-.783 1.4 1.626 1.626 0 0 0 .806 1.475 7.641 7.641 0 0 0 2.53.817 13.123 13.123 0 0 1 3.12.874 3.982 3.982 0 0 1 1.758 1.452 4.461 4.461 0 0 1 .587 2.435z" transform="translate(132.165 83.641)" style="fill:#7bbfc6;stroke:#7bbfc6"/>
    </g>
</svg>
