<svg xmlns="http://www.w3.org/2000/svg" xmlns:xlink="http://www.w3.org/1999/xlink" width="1304.149" height="314.002" viewBox="0 0 1304.149 314.002">
    <defs>
        <linearGradient id="frigk5qkxb" x1=".5" x2=".5" y2="1" gradientUnits="objectBoundingBox">
            <stop offset="0" stop-color="#003f76"/>
            <stop offset="1" stop-color="#fff"/>
        </linearGradient>
        <linearGradient id="yaod0tg4ia" x1=".5" x2=".5" y2="1" gradientUnits="objectBoundingBox">
            <stop offset="0" stop-color="#5db4ff"/>
            <stop offset="1" stop-color="#fff"/>
        </linearGradient>
        <linearGradient id="ghk6m7z29c" x1=".672" y1=".136" x2=".246" y2=".678" xlink:href="#yaod0tg4ia"/>
    </defs>
    <g data-name="Group 9147">
        <g data-name="Group 9146">
            <g data-name="Group 9115">
                <g data-name="Group 9099">
                    <path data-name="Polygon 9" d="m6 0 6 6H0z" transform="rotate(90 -35.075 65.352)" style="fill:#44546a"/>
                    <text transform="translate(44 116.428)" style="font-family:NDAstroneer,ND Astroneer;font-size:36px;fill:#02264a"><tspan x="0" y="0">Investors</tspan></text>
                    <text transform="translate(514.277 116.428)" style="font-family:NDAstroneer,ND Astroneer;font-size:36px;fill:#02264a"><tspan x="0" y="0">DEX</tspan></text>
                    <text data-name="Real Estate" transform="translate(1126.149 116.428)" style="font-family:NDAstroneer,ND Astroneer;font-size:36px;fill:#02264a"><tspan x="0" y="0">Real Estate</tspan></text>
                    <text data-name="Rent Income" transform="translate(973.812 146.428)" style="font-size:24px;fill:#549ad6;font-family:NDAstroneer,ND Astroneer"><tspan x="0" y="0">Rent Income</tspan></text>
                    <text data-name="RDF Buypack" transform="translate(625.076 79.428)" style="font-size:24px;fill:#549ad6;font-family:NDAstroneer,ND Astroneer"><tspan x="0" y="0">RDF Buypack</tspan></text>
                    <path data-name="Path 8035" d="M13752.143-15620h-23.42v103.659h544.977v-73.633" transform="translate(-13727.723 15726.428)" style="fill:none;stroke:#44546a;stroke-width:2px;stroke-dasharray:5"/>
                    <g data-name="Group 9083">
                        <path data-name="Path 8036" d="M13928.911-15620h278.02" transform="translate(-13727.723 15726.428)" style="fill:none;stroke:#44546a;stroke-width:2px;stroke-dasharray:5"/>
                    </g>
                    <g data-name="Group 9084">
                        <path data-name="Polygon 6" d="m6 0 6 6H0z" transform="rotate(-90 358.981 -246.553)" style="fill:#44546a"/>
                        <path data-name="Path 8036" d="M14083.008-15620h-154.1" transform="translate(-13319.053 15726.428)" style="fill:none;stroke:#44546a;stroke-width:2px;stroke-dasharray:5"/>
                    </g>
                    <path data-name="Polygon 6" d="m6 0 6 6H0z" transform="rotate(-90 536.214 -423.786)" style="fill:#44546a"/>
                    <path data-name="Path 8036" d="M14062.737-15620h-133.826" transform="translate(-12964.588 15726.428)" style="fill:none;stroke:#44546a;stroke-width:2px;stroke-dasharray:5"/>
                    <path data-name="Polygon 8" d="m6 0 6 6H0z" transform="rotate(90 191.797 292.224)" style="fill:#44546a"/>
                    <text data-name="Get RDF" transform="translate(317.488 292.502)" style="font-size:26px;fill:#549ad6;font-family:NDAstroneer,ND Astroneer"><tspan x="-44.261" y="0">Get RDF</tspan></text>
                    <text data-name="Stake RDF" transform="translate(323.277 183.428)" style="font-size:26px;fill:#549ad6;font-family:NDAstroneer,ND Astroneer"><tspan x="-57.33" y="0">Stake RDF</tspan></text>
                    <text data-name="Trade RDF" transform="translate(323.277 81.428)" style="font-size:26px;fill:#549ad6;font-family:NDAstroneer,ND Astroneer"><tspan x="-56.507" y="0">Trade RDF</tspan></text>
                    <g data-name="Group 9097">
                        <path data-name="Path 8050" d="M871.713 185.584a8.824 8.824 0 1 1 10.756-13.984 8.486 8.486 0 0 1 3.225 7.077 8.684 8.684 0 0 1-3.624 6.912 13.522 13.522 0 0 1 7.1 4.941 15.757 15.757 0 0 1 6.238-3.282 10.1 10.1 0 0 1-4.477-9.125 9.614 9.614 0 0 1 3.309-6.871 10.123 10.123 0 0 1 14.321.68 9.814 9.814 0 0 1 2.572 8.072 10.061 10.061 0 0 1-4.434 7.238 15.736 15.736 0 0 1 6.247 3.288 13.513 13.513 0 0 1 7.1-4.941 8.714 8.714 0 0 1-3.61-7.823 8.418 8.418 0 0 1 2.94-5.929 8.6 8.6 0 0 1 6.691-2.187 8.44 8.44 0 0 1 5.873 3.063 8.844 8.844 0 0 1-1.475 12.823c.814.351 1.67.676 2.485 1.083a12.142 12.142 0 0 1 2.434 1.655 13.481 13.481 0 0 1 2.926 3.5 13.128 13.128 0 0 1 1.472 3.785 14.82 14.82 0 0 1 .293 3.466c-.014.921 0 1.842 0 2.763a1.032 1.032 0 0 1-.965.995c-.124.005-.248 0-.372 0h-20.395V205.978a1.11 1.11 0 0 1-.856 1.173.931.931 0 0 1-.258.031h-32.336a1.107 1.107 0 0 1-1.115-1.177c-.006-.965 0-1.931 0-2.9v-.326h-20.606a1.035 1.035 0 0 1-1.126-1.127c0-1.3-.028-2.6.008-3.906a12.116 12.116 0 0 1 .848-4.076 12.424 12.424 0 0 1 1.721-3.127c.306-.4.625-.783.958-1.157a13 13 0 0 1 3.01-2.457 13.5 13.5 0 0 1 3.122-1.345zm44.411 19.4c.014-.032.027-.047.027-.063a35.107 35.107 0 0 0-.136-4.36 12.518 12.518 0 0 0-1.344-4.29 17.557 17.557 0 0 0-1.347-2.1 12.365 12.365 0 0 0-3.026-2.884 12.063 12.063 0 0 0-3.867-1.815 28.308 28.308 0 0 0-2.538-.5 8.453 8.453 0 0 0-1.4-.058 44.433 44.433 0 0 0-4.553.1 14.1 14.1 0 0 0-3.082.715 12.847 12.847 0 0 0-4.383 2.612 13.56 13.56 0 0 0-3.3 4.473 14 14 0 0 0-1.214 5.56c-.017.77 0 1.541 0 2.311v.3zm2.122-4.4h19.681a.61.61 0 0 0 .015-.1c-.033-1.039-.04-2.081-.112-3.118a10.778 10.778 0 0 0-.293-1.732 10.336 10.336 0 0 0-1.016-2.534 10.731 10.731 0 0 0-1.683-2.315 11.43 11.43 0 0 0-3.686-2.594 11.114 11.114 0 0 0-4.354-.96 80.379 80.379 0 0 0-3.739.051 6.569 6.569 0 0 0-1.454.194 22.7 22.7 0 0 0-2.266.726 10.315 10.315 0 0 0-3.481 2.33c-.488.472-.9 1.027-1.35 1.555a15.545 15.545 0 0 1 3.737 8.498zm-30.607-8.523c-.594-.634-1.125-1.295-1.752-1.846a13.108 13.108 0 0 0-2.1-1.529 10.782 10.782 0 0 0-5.06-1.445c-1.315-.044-2.635.013-3.952.04a10.016 10.016 0 0 0-3.342.72 11.289 11.289 0 0 0-6.41 6.309 10.225 10.225 0 0 0-.742 3.029 15.33 15.33 0 0 0-.06 1.027c-.009.738 0 1.476 0 2.225h19.659a15.485 15.485 0 0 1 1.2-4.491 16.028 16.028 0 0 1 2.558-4.037zm13.414-5.331a7.961 7.961 0 1 0-7.951-7.716 7.947 7.947 0 0 0 7.95 7.718zm-24.16-14.9a6.609 6.609 0 1 0 6.623 6.281 6.581 6.581 0 0 0-6.625-6.281zm48.319 13.212a6.588 6.588 0 0 0 6.642-6.618 6.628 6.628 0 0 0-13.249-.332 6.634 6.634 0 0 0 6.605 6.95z" transform="translate(-784.036 -126.969)" style="fill:#fd6920"/>
                        <path data-name="Path 8051" d="M1530.212 245.065a3.755 3.755 0 0 0 0-.57 1.052 1.052 0 0 1 1.045-1.057 1.036 1.036 0 0 1 1.038.7 1.968 1.968 0 0 1 .048.679c0 .195.042.277.255.339a2.672 2.672 0 0 1 1.948 1.828.991.991 0 0 1-.3 1.122.9.9 0 0 1-1.082.035 1.093 1.093 0 0 1-.382-.481 1.3 1.3 0 0 0-1.316-.9 2.909 2.909 0 0 0-.865.059 1.606 1.606 0 0 0-.671.372.52.52 0 0 0 .216.9c.656.21 1.325.379 1.988.568a5.813 5.813 0 0 1 1.746.7 2.36 2.36 0 0 1 1 1.437 2.574 2.574 0 0 1-.52 2.3 3.049 3.049 0 0 1-1.792 1.09c-.06.013-.118.03-.211.054v.516a1 1 0 0 1-.635.995 1.111 1.111 0 0 1-1.234-.259.985.985 0 0 1-.262-.8c.01-.158 0-.318 0-.473-.305-.11-.609-.2-.892-.326a2.97 2.97 0 0 1-1.669-2.076.945.945 0 0 1 1.774-.632 3.56 3.56 0 0 0 .343.672 1.73 1.73 0 0 0 1.216.6 2.411 2.411 0 0 0 1.674-.286.706.706 0 0 0-.083-1.314 13.579 13.579 0 0 0-1.525-.473 5.878 5.878 0 0 1-2.26-.881 2.251 2.251 0 0 1-.843-2.436 2.588 2.588 0 0 1 2.251-2.002z" transform="translate(-1414.252 -197.818)" style="fill:#fd6920"/>
                    </g>
                    <path data-name="Path 174" d="M5.89-50.508a2.4 2.4 0 0 1 .562-1.744 2.366 2.366 0 0 1 1.756-.573h5.734a11.36 11.36 0 0 1 4.121.608 4.076 4.076 0 0 1 2.212 1.966 8.182 8.182 0 0 1 .691 3.679v2.247a5.74 5.74 0 0 1-1.159 3.925 6.192 6.192 0 0 1-3.827 1.695l6.109 9.294h-3l-7.115-11.19h1.451a10.039 10.039 0 0 0 2.95-.34 2.5 2.5 0 0 0 1.5-1.135 4.66 4.66 0 0 0 .444-2.247v-2.245a4.881 4.881 0 0 0-.419-2.252 2.392 2.392 0 0 0-1.429-1.137 9.35 9.35 0 0 0-2.856-.34H9.472a1.085 1.085 0 0 0-.749.187 1.085 1.085 0 0 0-.187.749v19.946H5.89zM28.27-32.88a1.085 1.085 0 0 0 .187.749 1.085 1.085 0 0 0 .749.187h10.605v2.529H27.943a2.4 2.4 0 0 1-1.744-.562 2.366 2.366 0 0 1-.573-1.756v-18.775a2.4 2.4 0 0 1 .562-1.744 2.366 2.366 0 0 1 1.756-.573h11.867v2.525h-10.6a1.085 1.085 0 0 0-.749.187 1.085 1.085 0 0 0-.187.749v6.812h11.044v2.341H28.27zm18.87-19.945v23.41h-2.647v-23.41zM57.791-50.3h-7.023v-2.528h16.644v2.528h-6.977v20.882H57.79zm11 18.353h6.649a12.244 12.244 0 0 0 1.931-.117 1.791 1.791 0 0 0 1.042-.492 1.628 1.628 0 0 0 .351-1.147 2.045 2.045 0 0 0-.585-1.615 4.623 4.623 0 0 0-2.154-.8l-3.09-.562a10.307 10.307 0 0 1-2.739-.819 2.94 2.94 0 0 1-1.381-1.4 6.162 6.162 0 0 1-.421-2.528 3.943 3.943 0 0 1 1.333-3.406 7.233 7.233 0 0 1 4.214-.972h6.766v2.528h-6.32a9.931 9.931 0 0 0-2 .152 1.67 1.67 0 0 0-1.018.585 2.093 2.093 0 0 0-.328 1.276 1.875 1.875 0 0 0 .515 1.44 3.784 3.784 0 0 0 1.9.714l3 .538a12.08 12.08 0 0 1 3.006.855 3.13 3.13 0 0 1 1.511 1.463 6.337 6.337 0 0 1 .468 2.715 4.45 4.45 0 0 1-.609 2.528 3.169 3.169 0 0 1-1.744 1.241 10.173 10.173 0 0 1-2.938.351h-7.358zm28.279 2.528a2.4 2.4 0 0 1-1.744-.562 2.366 2.366 0 0 1-.573-1.756v-18.771a2.4 2.4 0 0 1 .562-1.744 2.366 2.366 0 0 1 1.756-.573h5.029q4.308 0 6.566 1.85t2.259 6.274v7.163q0 4-2.06 6.063t-6.765 2.06zm.33-3.461a1.085 1.085 0 0 0 .187.749 1.084 1.084 0 0 0 .749.187h3.764a7.125 7.125 0 0 0 4.682-1.276q1.5-1.276 1.5-4.319V-44.7a5.6 5.6 0 0 0-1.428-4.237Q105.428-50.3 102.1-50.3h-3.765a1.085 1.085 0 0 0-.749.187 1.085 1.085 0 0 0-.187.749zm22.918-17.674a3.334 3.334 0 0 1 .972-1.744 2.845 2.845 0 0 1 1.908-.573 2.839 2.839 0 0 1 1.85.538 3.355 3.355 0 0 1 .983 1.8l7.163 21.116h-2.809L123.477-49.9a.281.281 0 0 0-.281-.234.281.281 0 0 0-.281.234l-6.905 20.485h-2.856zM143.142-29.3a10.306 10.306 0 0 1-4.424-.808 5.067 5.067 0 0 1-2.482-2.552 11.127 11.127 0 0 1-.8-4.578v-7.77a11.127 11.127 0 0 1 .8-4.578 5.067 5.067 0 0 1 2.482-2.552 10.306 10.306 0 0 1 4.424-.808h1.1a10.306 10.306 0 0 1 4.424.808 5.067 5.067 0 0 1 2.482 2.552 11.127 11.127 0 0 1 .8 4.578v7.772a11.127 11.127 0 0 1-.8 4.578 5.067 5.067 0 0 1-2.482 2.552 10.306 10.306 0 0 1-4.424.806zm.562-2.5a8.636 8.636 0 0 0 3.313-.515A3.263 3.263 0 0 0 148.761-34a7.89 7.89 0 0 0 .538-3.231v-7.772a7.89 7.89 0 0 0-.538-3.231 3.263 3.263 0 0 0-1.744-1.686 8.636 8.636 0 0 0-3.312-.515 8.712 8.712 0 0 0-3.336.515 3.263 3.263 0 0 0-1.744 1.686 7.89 7.89 0 0 0-.538 3.231v7.772a7.89 7.89 0 0 0 .537 3.231 3.263 3.263 0 0 0 1.744 1.686 8.712 8.712 0 0 0 3.335.515z" transform="translate(777.77 146.256)" style="fill:#02264a"/>
                    <g data-name="Group 42">
                        <g data-name="Group 38">
                            <g data-name="Group 37">
                                <g data-name="Group 36">
                                    <path data-name="Path 173" d="m-13744.533-3699.79 36.478 22.453 36.293-21.879-33.542-21.438-29.929 15.634z" transform="translate(14570.089 3752.385)" style="fill:#02264a"/>
                                    <path data-name="Path 172" d="m-13635.771-3768.3 1.053 30.18 5.2 1.265-.8-30.272-3.157-2.936z" transform="translate(14493.598 3787.133)" style="fill:#02264a"/>
                                    <path data-name="Path 171" d="M-13668.982-3783.816v19.728l8.309 17.579h5.844l-.379-29.145" transform="translate(14516.954 3796.806)" style="fill:url(#frigk5qkxb)"/>
                                    <g data-name="Group 35">
                                        <path data-name="Path 157" d="m-14294.536-2189.63 12.742-7.667-.151 23.167 5.172 7.432-16.772 25.157-14.239-6.975-2.79-1.525-11.182-8.439 3.636-6.869 7.544-2.31 12.756-7.656v16.837l3.579-4.968z" transform="translate(15156.302 2210.794)" style="fill:#00264a"/>
                                        <path data-name="Path 148" d="m0 0 14.67 4.51 3.8 14.573-14.481-3.595z" transform="rotate(-45 439.753 -1017.06)" style="fill:url(#yaod0tg4ia)"/>
                                        <path data-name="Path 149" d="m0 0 14.67 4.51 3.8 14.573-14.481-3.595z" transform="rotate(-45 468.858 -1030.6)" style="fill:url(#yaod0tg4ia)"/>
                                        <path data-name="Path 152" d="m-14597.984-2055.961.023 23.4 12.7-7.814-.021-23.242z" transform="translate(15477.868 2093.717)" style="fill:#02264a"/>
                                        <path data-name="Path 159" d="M-13244.836-2104.856v17.355l13.646 8.476v-17.687z" transform="translate(14076.982 2139.847)" style="fill:url(#frigk5qkxb)"/>
                                        <path data-name="Path 160" d="m-13189.729-2044.733 13.729 7.989v10.206l-13.729-8.694z" transform="translate(14038.522 2098.156)" style="fill:url(#frigk5qkxb)"/>
                                        <path data-name="Path 161" d="m-13133.481-2127.9 13.843 8.065v23.448l-4.736-2.727-1.7-.9-7.407-4.866z" transform="translate(13999.558 2157.577)" style="fill:url(#frigk5qkxb)"/>
                                        <path data-name="Path 162" d="m0 0 9.694 2.98 2.515 9.631-3.195-8.95z" transform="rotate(-45 442.093 -1022.46)" style="fill:#1469b1"/>
                                        <path data-name="Path 163" d="m0 0 9.694 2.98 2.515 9.631-3.195-8.95z" transform="rotate(-45 471.22 -1036.05)" style="fill:#1469b1"/>
                                        <path data-name="Path 165" d="m0 0 14.67 4.51 3.8 14.573-14.481-3.595z" transform="rotate(-45 488.857 -997.84)" style="fill:url(#ghk6m7z29c)"/>
                                        <path data-name="Path 166" d="m0 0 9.694 2.98 2.515 9.631L9.172 3.5z" transform="rotate(-45 490.97 -1003.557)" style="fill:#1469b1"/>
                                        <path data-name="Path 167" d="m0 0 14.67 4.51 3.8 14.573-14.481-3.595z" transform="rotate(-45 458.245 -986.742)" style="fill:url(#yaod0tg4ia)"/>
                                        <path data-name="Path 168" d="m0 0 9.694 2.98 2.515 9.631-3.195-8.95z" transform="rotate(-45 460.586 -992.14)" style="fill:#1469b1"/>
                                        <path data-name="Path 169" d="m-14598.062-2055.535-.089 10.072 12.7-7.815.088-9.91z" transform="translate(15460.678 2117.069)" style="fill:#02264a"/>
                                        <path data-name="Path 170" d="m-14469.581-2018.507-1.6-.983.5-.807 1.1.677.426-.259.5.81zm2.946-1.8-.5-.81 2.025-1.237.494.81zm-6.562-.427-2.02-1.243.5-.807 2.021 1.243zm10.611-2.046-.5-.81 2.024-1.237.5.81zm-14.653-.441-2.019-1.244.5-.807 2.02 1.243zm18.7-2.033-.494-.81 2.025-1.237.494.81zm-22.738-.454-2.021-1.244.5-.807 2.021 1.243zm26.789-2.02-.5-.81 2.024-1.237.494.81zm-30.829-.467-2.022-1.243.5-.806 2.021 1.244zm34.878-2.006-.5-.81 2.024-1.237.494.81zm-38.919-.481-2.021-1.244.5-.807 2.021 1.243zm42.968-1.993-.5-.81 2.025-1.237.494.81zm-47.01-.494-2.021-1.243.5-.807 2.021 1.243zm51.058-1.979-.494-.81 2.025-1.237.492.81zm-55.1-.508-2.021-1.243.5-.807 2.021 1.244zm59.146-1.965-.5-.81 2.023-1.237.5.81zm-63.187-.522-2.021-1.244.5-.806 2.019 1.243zm67.235-1.952-.5-.81 2.025-1.237.494.81zm-71.276-.535-2.02-1.243.5-.806 2.021 1.243z" transform="translate(15331.67 2098.935)" style="fill:#060203"/>
                                    </g>
                                </g>
                            </g>
                        </g>
                    </g>
                    <g data-name="Group 9098">
                        <path data-name="Path 8052" d="M825.216 104.664v-.642c0-6.168.038-12.336-.021-18.5a3.355 3.355 0 0 1 3.54-3.512c1.4.074 2.81.012 4.216.014a3.224 3.224 0 0 1 3.457 3.475q.005 7.739 0 15.477v3.654h8.274v-.5q0-15.5-.012-31a.965.965 0 0 0-.277-.668q-7.019-5.83-14.064-11.629c-.1-.083-.208-.16-.362-.277l-1.976 1.623-10.828 8.927a1.246 1.246 0 0 1-1.851-.05 1.232 1.232 0 0 1 .261-1.829q6.768-5.589 13.545-11.166a1.24 1.24 0 0 1 1.753.021q6.526 5.376 13.047 10.757c.88.726 1.753 1.46 2.643 2.173a1.472 1.472 0 0 1 .595 1.237q-.009 16.742-.006 33.485a1.255 1.255 0 0 1-1.406 1.407h-10.368a1.247 1.247 0 0 1-1.428-1.426V85.674c0-1-.185-1.18-1.187-1.181h-3.82c-1.131 0-1.264.13-1.264 1.241v19.793c0 1.193-.418 1.615-1.6 1.615-.562 0-1.125.009-1.687 0a1.235 1.235 0 0 1-1.276-1.236 1.217 1.217 0 0 1 1.278-1.228c.244-.02.492-.014.824-.014z" transform="translate(399.716 -30.708)" style="fill:#fb692f"/>
                        <path data-name="Path 8053" d="M619.774 181c0-4.382.007-8.764-.008-13.146a1.668 1.668 0 0 1 .621-1.375q5.761-5.015 11.5-10.057a1.3 1.3 0 0 1 2.011-.006q5.745 5.033 11.5 10.055a1.742 1.742 0 0 1 .645 1.422q-.006 13.121 0 26.242a1.3 1.3 0 0 1-1.49 1.488q-3.125.006-6.25 0a1.276 1.276 0 0 1-1.438-1.432q-.008-6.2-.008-12.4c0-.839-.214-1.053-1.052-1.053q-2.927 0-5.853.005c-.806 0-1.036.228-1.037 1.023q0 6.151-.006 12.3c0 1.12-.432 1.549-1.563 1.551h-6.151a1.254 1.254 0 0 1-1.425-1.432v-13.2zm6.666 12.134v-11.461a3.226 3.226 0 0 1 3.393-3.395h6.052a3.2 3.2 0 0 1 3.44 3.434v11.408h4.258v-24.493a.957.957 0 0 0-.38-.8q-3.557-3.09-7.1-6.2l-3.211-2.807c-.156.132-.282.236-.405.343q-4.91 4.294-9.826 8.58a1.144 1.144 0 0 0-.443.968q.017 11.956.009 23.911c0 .161.016.322.026.507z" transform="translate(575.592 -119.201)" style="fill:#fb692f"/>
                        <path data-name="Path 8054" d="M499.534 71.647h6.976a1.231 1.231 0 1 1 .1 2.459q-4.191.025-8.382 0a1.2 1.2 0 0 1-1.191-1.217c-.006-.115 0-.231 0-.347v-49.9c0-1.206.393-1.6 1.6-1.6h32.833c1.241 0 1.635.389 1.635 1.622v8.63c0 1.024-.776 1.643-1.641 1.335a1.23 1.23 0 0 1-.816-1.28v-7.807h-31.11z" style="fill:#fb692f" transform="translate(686.151 2.309)"/>
                        <path data-name="Path 8055" d="M547.632 64.839h12.293a2.714 2.714 0 0 1 .688.055 1.244 1.244 0 0 1 .884 1.236 1.2 1.2 0 0 1-1 1.13 2.691 2.691 0 0 1-.497.04h-24.833c-.846 0-1.361-.379-1.445-1.045a1.217 1.217 0 0 1 1.321-1.412q4.263-.009 8.526 0z" transform="translate(653.11 -37.14)" style="fill:#fb692f"/>
                        <path data-name="Path 8056" d="M543.046 134.781h-8.133a1.212 1.212 0 0 1-.7-2.244 1.776 1.776 0 0 1 .8-.205q8.034-.017 16.068-.006a1.237 1.237 0 0 1 1.357 1.041 1.16 1.16 0 0 1-.771 1.336 2.206 2.206 0 0 1-.681.078q-3.973.005-7.94 0z" transform="translate(653.181 -97.926)" style="fill:#fb692f"/>
                        <path data-name="Path 8057" d="M539.656 200.033h4.513a1.243 1.243 0 1 1-.005 2.467h-9.075a1.243 1.243 0 1 1 .005-2.467c1.521-.003 3.042 0 4.562 0z" transform="translate(653.123 -158.92)" style="fill:#fb692f"/>
                        <path data-name="Path 8058" d="M537.315 337.721c-.76 0-1.521.007-2.281 0a1.219 1.219 0 0 1-1.324-1.228 1.2 1.2 0 0 1 1.32-1.227q2.306-.02 4.612-.008a1.228 1.228 0 0 1 .054 2.456c-.793.023-1.587.005-2.381.005z" transform="translate(653.11 -280.724)" style="fill:#fb692f"/>
                        <path data-name="Path 8059" d="M537.248 402.833c.76 0 1.52-.009 2.28 0a1.24 1.24 0 0 1 1.33 1.23 1.224 1.224 0 0 1-1.335 1.224q-2.255.018-4.511 0a1.231 1.231 0 1 1 0-2.456c.748-.005 1.488.001 2.236.002z" transform="translate(653.126 -341.596)" style="fill:#fb692f"/>
                        <path data-name="Path 8060" d="M537.282 267.822h2.281a1.225 1.225 0 1 1 .091 2.448q-2.379.044-4.76 0a1.223 1.223 0 1 1 .107-2.444c.76-.008 1.521 0 2.281 0z" transform="translate(653.119 -219.983)" style="fill:#fb692f"/>
                        <path data-name="Path 8061" d="M537.249 472.727c-.76 0-1.52.008-2.28 0a1.221 1.221 0 1 1-.094-2.441q2.4-.05 4.808 0a1.192 1.192 0 0 1 1.181 1.272 1.222 1.222 0 0 1-1.284 1.164c-.78.012-1.554.005-2.331.005z" transform="translate(653.119 -402.336)" style="fill:#fb692f"/>
                    </g>
                    <path data-name="Rectangle 908" transform="translate(104 188.428)" style="fill:#fff" d="M0 0h22v39H0z"/>
                    <path data-name="Path 8062" d="M14589.51-15588.858v175.433h-747.617l.76-163.382" transform="translate(-13727.723 15726.428)" style="fill:none;stroke:#44546a;stroke-width:2px;stroke-dasharray:5"/>
                    <path data-name="Polygon 10" d="m6 0 6 6H0z" transform="translate(108.277 148.428)" style="fill:#44546a"/>
                </g>
            </g>
        </g>
    </g>
</svg>
