<svg xmlns="http://www.w3.org/2000/svg" width="101.431" height="93.91" viewBox="0 0 101.431 93.91">
    <g data-name="Group 9148">
        <path data-name="Path 8039" d="M524.36 320.9c.092-.484.151-.834.226-1.18a5.5 5.5 0 0 1 5.383-4.592c3.956-.077 7.917-.086 11.873-.007a5.534 5.534 0 0 1 5.591 5.84q.033 8.286-.011 16.573a1.938 1.938 0 0 0 .88 1.746c4.246 3.2 8.461 6.442 12.7 9.656 3.243 2.462 3.682 5.652 1.2 8.9-2.128 2.783-4.2 5.615-6.415 8.323a8.083 8.083 0 0 1-2.869 2.213 1.527 1.527 0 0 0-1.087 1.707q.037 15.46.017 30.92c0 4.588-2.127 6.707-6.739 6.707h-64.077c-4.6 0-6.722-2.122-6.722-6.725 0-10.306-.013-20.613.015-30.92a1.5 1.5 0 0 0-1.1-1.689 7.224 7.224 0 0 1-2.709-2.029c-2.336-2.879-4.554-5.855-6.78-8.822a5.6 5.6 0 0 1 1.145-8.362q22.201-16.959 44.419-33.912c2.543-1.94 5.024-1.92 7.587.027 2.133 1.621 4.255 3.258 6.385 4.882.317.244.657.453 1.088.744zm-56.371 32.953 7.1 9.274c1.009-.753 1.857-1.4 2.722-2.027a1.2 1.2 0 0 1 1.906.334 2.96 2.96 0 0 1 .2 1.436q.017 18.862-.015 37.724c0 1.186.308 1.515 1.5 1.513q31.668-.052 63.336 0c1.169 0 1.521-.288 1.517-1.5q-.06-19.044.016-38.088a1.948 1.948 0 0 1 .716-1.506 2.116 2.116 0 0 1 1.642.311 26.414 26.414 0 0 1 2.45 1.8l7.057-9.244c-.444-.359-.786-.65-1.141-.921-4.685-3.578-9.363-7.165-14.068-10.716a2.575 2.575 0 0 1-1.139-2.289c.04-5.9.019-11.792.018-17.688v-1.465h-11.69c0 2.816.049 5.535-.036 8.25a2.493 2.493 0 0 1-.807 1.84c-.375.229-1.324-.151-1.827-.52-2.692-1.975-5.322-4.032-7.976-6.058-2.123-1.62-4.249-3.237-6.4-4.876z" transform="translate(-462.357 -313.802)" style="fill:#7792ad"/>
        <g data-name="Group 9088">
            <path data-name="Path 8046" d="M543.529 492.017v-41.729h3.717v37.982h39.3v3.746z" transform="translate(-514.067 -416.134)" style="fill:#7792ad"/>
            <path data-name="Path 8047" d="m593.97 498.874 10.81-11.007h-1.628c-1.363 0-2.726.013-4.088-.008a1.713 1.713 0 0 1-1.869-1.822 1.693 1.693 0 0 1 1.828-1.861c3.392-.033 6.785-.018 10.177-.021h2.039a4.959 4.959 0 0 1 .086.631q.006 5.7 0 11.4a1.889 1.889 0 1 1-3.763.136c-.04-1.536-.011-3.074-.012-4.611v-.96l-13.381 13.387-6.261-6.37-11.842 11.851-2.59-2.68 14.319-14.323z" transform="translate(-538.791 -444.096)" style="fill:#7792ad"/>
        </g>
    </g>
</svg>
