<svg xmlns="http://www.w3.org/2000/svg" width="116.37" height="115.686" viewBox="0 0 116.37 115.686">
    <g data-name="Group 9087">
        <path data-name="Path 8040" d="M411.483 272.553a5.188 5.188 0 0 1 2.947-3.377 4.429 4.429 0 0 1 5.841 3.249 11.809 11.809 0 0 1 .138 2.036q.012 15.627-.011 31.255a2.081 2.081 0 0 0 1.035 2.023 17.849 17.849 0 0 1-.026 29.684 1.986 1.986 0 0 0-1.007 1.923c.024 10.532.011 21.064.02 31.6a5.077 5.077 0 0 1-1.4 4.04 4.4 4.4 0 0 1-7.294-1.914 3.17 3.17 0 0 0-.241-.478z" transform="translate(-411.483 -264.687)" style="fill:#7792ad"/>
        <path data-name="Path 8041" d="M529.457 306.083a93.245 93.245 0 0 1 18.2-53.416c2.181-3 5.864-3.066 7.713-.1 1.163 1.866.723 3.691-.516 5.387a85.016 85.016 0 0 0-7.864 13 83.1 83.1 0 0 0-8.1 28.32 84.268 84.268 0 0 0 13.845 56.27c.792 1.2 1.69 2.332 2.46 3.546a4.325 4.325 0 0 1 .039 5.013 4.21 4.21 0 0 1-4.413 1.9 4.858 4.858 0 0 1-3.254-2.263 93.408 93.408 0 0 1-14.925-31.138 96.394 96.394 0 0 1-3.185-26.519z" transform="translate(-502.575 -250.38)" style="fill:#7792ad"/>
        <path data-name="Path 8042" d="M607.941 340.035c.188-18.609 5.473-34.189 16.062-47.948 2.253-2.928 5.912-2.87 7.738.105.946 1.541.716 3.567-.688 5.378a67.227 67.227 0 0 0-8.336 13.884 67.268 67.268 0 0 0 7.607 67.643 11.35 11.35 0 0 1 1.823 3.213 4.2 4.2 0 0 1-2.11 4.827 4.086 4.086 0 0 1-5.109-.7 84.415 84.415 0 0 1-6.01-8.375 73.483 73.483 0 0 1-10.378-30c-.373-3.077-.467-6.186-.599-8.027z" transform="translate(-563.188 -280.917)" style="fill:#7792ad"/>
        <path data-name="Path 8043" d="M686.782 368.18c.152-12.061 4.772-24.657 13.917-35.58a4.518 4.518 0 0 1 5.511-1.363 4.251 4.251 0 0 1 2.366 4.9 6.153 6.153 0 0 1-1.288 2.47 49.805 49.805 0 0 0-9.438 17.456 48.773 48.773 0 0 0-1.655 21.1 49.278 49.278 0 0 0 11.133 24.953c1.367 1.644 1.918 3.437.848 5.437-1.606 3-5.327 3.165-7.638.39a58.465 58.465 0 0 1-11.153-20.373 62.5 62.5 0 0 1-2.603-19.39z" transform="translate(-624.068 -312.483)" style="fill:#7792ad"/>
        <path data-name="Path 8044" d="M765.28 403.269c.169-12.086 4.143-21.655 11.993-29.594a4.339 4.339 0 0 1 4.769-1.231 4.207 4.207 0 0 1 2.984 3.881 4.743 4.743 0 0 1-1.615 3.836 30.305 30.305 0 0 0-6.355 9.2c-4.226 9.825-3.818 19.475 1.537 28.754a50.785 50.785 0 0 0 5.108 6.635c1.728 2.094 1.817 4.58.08 6.334a4.368 4.368 0 0 1-6.466-.1 39.3 39.3 0 0 1-11.427-22.1c-.344-2.158-.476-4.354-.608-5.615z" transform="translate(-684.685 -344.43)" style="fill:#7792ad"/>
        <path data-name="Path 8045" d="M843.788 437.138c.32-8.322 3.85-14.738 10.849-19.169a4.56 4.56 0 0 1 5.659.392 4.344 4.344 0 0 1 .677 5.5 7.551 7.551 0 0 1-2.125 1.992 13.306 13.306 0 0 0-2.325 20.436 22.421 22.421 0 0 0 3.007 2.4c2.8 2.074 2.887 5.621.112 7.527a4.282 4.282 0 0 1-5.012-.075 21.906 21.906 0 0 1-10.665-17.051c-.065-.673-.123-1.353-.177-1.952z" transform="translate(-745.308 -379.177)" style="fill:#7792ad"/>
    </g>
</svg>
