<svg xmlns="http://www.w3.org/2000/svg" width="32.205" height="32.205" viewBox="0 0 32.205 32.205">
    <g data-name="Group 9133">
        <path data-name="Path 550" d="M2905.207 124.632v-3.077s-3.146-.03-3.359-.03a3.89 3.89 0 0 0-3.466 3.452v3.293h-2.946v3.493h2.906v8.665h3.439v-8.7h3.04l.386-3.413h-3.386v-2.506a1.163 1.163 0 0 1 1.133-1.191c.453-.004 2.253.014 2.253.014z" transform="translate(-2884.219 -114.875)" style="fill:#99b9d9"/>
        <path data-name="Rectangle 52" d="M3-.5h25.205a3.5 3.5 0 0 1 3.5 3.5v25.205a3.5 3.5 0 0 1-3.5 3.5H3a3.5 3.5 0 0 1-3.5-3.5V3A3.5 3.5 0 0 1 3-.5zm25.205 31.205a2.5 2.5 0 0 0 2.5-2.5V3a2.5 2.5 0 0 0-2.5-2.5H3A2.5 2.5 0 0 0 .5 3v25.205a2.5 2.5 0 0 0 2.5 2.5z" transform="translate(.5 .5)" style="opacity:.052;fill:#99b9d9"/>
    </g>
</svg>
