<svg xmlns="http://www.w3.org/2000/svg" width="29.492" height="29.493" viewBox="0 0 29.492 29.493">
    <g data-name="Group 304">
        <path data-name="Path 548" d="M2272.409 136.1h-2.024a2.761 2.761 0 0 1-2.8-2.689c-.023-3.426-.016-6.853-.005-10.279a2.755 2.755 0 0 1 2.739-2.7h2.093v-.261c0-1.994.022-3.988-.008-5.982a1.035 1.035 0 0 1 1.132-1.135q8.815.024 17.631.009a.935.935 0 0 1 1.057 1.044v6.314c.092 0 .167.011.241.011h1.812a2.758 2.758 0 0 1 2.781 2.763q.008 5.087 0 10.174a2.759 2.759 0 0 1-2.73 2.727h-2.106V141.525a.932.932 0 0 1-1.037 1.022h-17.715a.937.937 0 0 1-1.057-1.044v-5.118zm19.811-1.845h1.986a.928.928 0 0 0 1-1.019v-9.858a.954.954 0 0 0-1.1-1.092h-23.635a.94.94 0 0 0-1.057 1.048v9.921a.924.924 0 0 0 1 1h1.812c.054 0 .107-.01.177-.017v-5.464a.914.914 0 0 1 .942-.967h17.8a.939.939 0 0 1 1.071 1.05v5.161zm-1.865 6.437v-11.024h-16.082v11.026zm-16.084-20.275h16.083v-5.49h-16.083z" transform="translate(-2267.565 -113.059)" style="fill:#99b9d9"/>
        <path data-name="Path 549" d="M2836.294 376.648a.919.919 0 1 1 .908.93.9.9 0 0 1-.908-.93z" transform="translate(-2812.332 -364.672)" style="fill:#99b9d9"/>
    </g>
</svg>
