<svg xmlns="http://www.w3.org/2000/svg" width="445.05" height="339.291" viewBox="0 0 445.05 339.291">
    <g data-name="Group 9121">
        <g data-name="Group 63">
            <g data-name="Group 53">
                <path data-name="Path 7552" d="M773.512 735.935c2.515 71.825 6.208 143.774 24.912 210.508-32.181 9.012-64.334 17.995-96.751 27.127C680 907.9 648.1 847.644 622.227 779.588c49.205-21.036 99.103-34.803 151.285-43.653z" transform="translate(-551.077 -725.455)" style="fill:#b3ffcc"/>
                <path data-name="Path 7552 - Outline" d="m752.007 703.068.253 7.215c2.551 72.848 6.359 143.65 24.682 209.024l1.705 6.084-28.018 7.844q-37.3 10.441-74.809 20.985l-5.82 1.639-1.895-5.74c-12.287-37.225-27.648-72.158-43.91-109.141-11.943-27.161-24.293-55.246-35.442-84.576l-2.155-5.67 5.577-2.384c47.411-20.269 97.364-34.685 152.712-44.073zm11.1 213.552c-16.684-62.777-20.711-129.786-23.22-198.647-49.369 8.842-94.367 21.845-137.141 39.63 10.458 26.994 21.912 53.043 33.014 78.29 15.556 35.377 30.294 68.893 42.421 104.535q34.655-9.753 69.038-19.36z" transform="translate(-523.51 -700.025)" style="fill:#6dc384"/>
                <path data-name="Path 7553" d="M885.307 1094.9c28.648-8.321 53.982 4.658 56.5 27.108 2.519 22.587-12.8 45.573-35.569 52.111-22.723 6.431-48.518-4.36-57.308-24.791-8.676-20.39 7.815-45.968 36.377-54.428z" transform="translate(-724.698 -1001.242)" style="fill:#6dc384"/>
                <path data-name="Path 7554" d="M943.782 1696.833q12.93-3.637 25.8-7.25c-4.091-14.1-19.49-22.065-34.453-17.712 3.071 8.237 5.976 16.546 8.653 24.962z" transform="translate(-793.186 -1448.718)" style="fill:#6dc384"/>
                <path data-name="Path 7555" d="M951.968 1193.073c-3.5 1.34-4.429 4.645-2.8 9.848 1.639 5.236 4.1 7.334 7.339 6.37a4.751 4.751 0 0 0 3.558-3.826c.422-1.97.453-5.675.18-11.193s.693-9.915 2.89-13.192a17.447 17.447 0 0 1 10.166-6.88c5.323-1.516 9.883-.655 13.5 2.53a21.216 21.216 0 0 1 6.841 12.471c2.312 12.357-1.427 20.74-11.22 25.351q-1.693-4.884-3.386-9.781c5.33-2.314 7.279-6.7 5.9-13.216-1.285-6.107-4.358-8.512-9.241-7.128a6 6 0 0 0-4.275 3.6c-.684 1.775-.988 5.576-.8 11.318s-.607 10.162-2.37 13.25a13.138 13.138 0 0 1-8.02 6.207 13.789 13.789 0 0 1-11.321-1.551c-3.707-2.173-6.568-6.085-8.515-11.8-3.9-11.314-1.144-18.885 8.138-22.343l3.436 9.965z" transform="translate(-795.938 -1064.002)" style="fill:#b3ffcc"/>
                <path data-name="Path 7556" d="M908.06 1290.784q1.56 4.673 3.121 9.321-5.06 1.568-10.173 3.192l-3.368-9.208q5.232-1.682 10.42-3.305z" transform="translate(-764.18 -1154.771)" style="fill:#b3ffcc"/>
                <path data-name="Path 7557" d="M1179.356 1212.149q.8 4.9 1.64 9.783-5.062 1.382-10.086 2.78-.964-4.858-1.9-9.735 5.156-1.426 10.346-2.828z" transform="translate(-974.154 -1093.927)" style="fill:#b3ffcc"/>
                <path data-name="Path 7558" d="M1303.252 1579.805q-3.452-12.861-6.374-25.866c-14.553 4.062-23.242 18.889-19.283 33.044q12.825-3.591 25.657-7.178z" transform="translate(-1057.43 -1358.388)" style="fill:#6dc384"/>
                <path data-name="Path 7559" d="M1139.325 737.857q-20.826 3.6-41.115 8.266c2.3 15.585 20.888 23.732 42.431 19.227-.441-9.177-.853-18.357-1.316-27.493z" transform="translate(-919.371 -726.942)" style="fill:#6dc384"/>
                <path data-name="Path 7560" d="M622.227 876.636q5.077 13.008 10.289 25.685c20.573-8.263 33.372-25.7 29.109-40.961q-19.825 6.918-39.398 15.276z" transform="translate(-551.077 -822.504)" style="fill:#6dc384"/>
                <path data-name="Path 7561" d="M1107.453 1527.057a9.161 9.161 0 0 1 11.541 6.187 9.432 9.432 0 0 1-18.136 5.138 9.2 9.2 0 0 1 6.595-11.325z" transform="translate(-921.14 -1337.293)" style="fill:#6dc384"/>
                <path data-name="Path 7562" d="M944.123 940.63c7.038-2.044 13.516.646 14.513 5.818s-3.6 10.85-10.247 12.8c-6.61 1.943-13.113-.48-14.5-5.558-1.351-5.083 3.211-11.01 10.234-13.06z" transform="translate(-792.042 -883.307)" style="fill:#6dc384"/>
                <path data-name="Path 7563" d="M961.952 718.061c-12.13 70.839-23.134 142.039-18.379 211.178-33.341 2.285-66.648 4.548-100.245 6.9-7.88-68.7-26.871-134.185-38.374-206.078 52.452-10.597 104.106-13.937 156.998-12z" transform="translate(-692.463 -711.222)" style="fill:#b3ffcc"/>
                <path data-name="Path 7563 - Outline" d="M909.264 689.615c9.256 0 18.78.177 28.307.526l7.214.264-1.219 7.116c-12.3 71.847-22.962 141.946-18.3 209.678l.434 6.3-28.159 1.928a46656.34 46656.34 0 0 0-78.381 5.406l-6.03.423-.689-6.005c-4.467-38.948-12.41-76.275-20.819-115.794-6.175-29.019-12.56-59.025-17.517-90.006l-.958-5.99 5.945-1.2a649.785 649.785 0 0 1 130.172-12.646zm20.629 12.922a757.134 757.134 0 0 0-20.629-.286 639.375 639.375 0 0 0-121.7 11.224c4.755 28.554 10.677 56.384 16.417 83.357 8.044 37.8 15.664 73.616 20.3 110.982q36.351-2.54 72.4-4.988l15.592-1.067c-3.587-64.859 6.085-131.288 17.62-199.222z" transform="translate(-667.85 -689.615)" style="fill:#6dc384"/>
                <path data-name="Path 7564" d="M995.052 1023.579c29.739-2.326 51.91 15.529 49.813 38.023-2.123 22.627-21.791 42.021-45.415 43.8-23.556 1.68-46.621-14.127-51.076-35.918-4.354-21.727 16.991-43.421 46.678-45.905z" transform="translate(-802.998 -947.863)" style="fill:#6dc384"/>
                <path data-name="Path 7565" d="M962.932 1593.834q13.4-.935 26.736-1.856c-1.143-14.639-14.6-25.565-30.137-24.343 1.331 8.688 2.491 17.416 3.401 26.199z" transform="translate(-812.068 -1368.914)" style="fill:#6dc384"/>
                <path data-name="Path 7566" d="M1056.637 1124.877c-3.7.6-5.28 3.648-4.739 9.075.541 5.46 2.523 8.014 5.893 7.728a4.748 4.748 0 0 0 4.261-3.024c.814-1.843 1.6-5.464 2.451-10.922s2.693-9.568 5.51-12.33a17.451 17.451 0 0 1 11.35-4.67c5.522-.4 9.812 1.368 12.71 5.222a21.2 21.2 0 0 1 4.163 13.6c-.246 12.568-5.61 20.017-16.137 22.543q-.664-5.128-1.327-10.265c5.689-1.182 8.486-5.079 8.459-11.742-.018-6.241-2.538-9.22-7.6-8.857a6 6 0 0 0-4.918 2.653c-1.029 1.6-2.1 5.259-3.08 10.92q-1.493 8.5-5.013 12.492a13.142 13.142 0 0 1-9.114 4.447 13.789 13.789 0 0 1-10.769-3.819c-3.19-2.88-5.194-7.292-5.94-13.288-1.523-11.87 2.718-18.723 12.509-20.223q.662 5.244 1.331 10.46z" transform="translate(-876.263 -1015.413)" style="fill:#b3ffcc"/>
                <path data-name="Path 7567" d="M1008.991 1192.57q.576 4.893 1.16 9.761-5.272.507-10.607 1.059-.716-4.843-1.428-9.7 5.464-.585 10.875-1.12z" transform="translate(-841.923 -1078.778)" style="fill:#b3ffcc"/>
                <path data-name="Path 7568" d="M1290.531 1170.647q-.213 4.963-.383 9.912-5.238.325-10.442.673.045-4.953.118-9.918 5.339-.349 10.707-.667z" transform="translate(-1059.805 -1061.815)" style="fill:#b3ffcc"/>
                <path data-name="Path 7569" d="M1319.547 1562.685q-.767-13.293-.986-26.621c-15.075 1.02-26.594 13.772-25.594 28.436q13.285-.911 26.58-1.815z" transform="translate(-1070.018 -1344.556)" style="fill:#6dc384"/>
                <path data-name="Path 7570" d="M1344.214 718c-14.084-.472-28.035-.572-41.937-.261-.916 15.727 15.629 27.481 37.638 27.447 1.434-9.079 2.895-18.152 4.299-27.186z" transform="translate(-1077.24 -711.234)" style="fill:#6dc384"/>
                <path data-name="Path 7571" d="M804.953 749.119q2.327 13.767 4.855 27.24c21.823-3.911 37.9-18.387 36.824-34.192q-20.821 2.744-41.679 6.952z" transform="translate(-692.463 -730.277)" style="fill:#6dc384"/>
                <path data-name="Path 7572" d="M1151.481 1463.208a9.163 9.163 0 0 1 10.043 8.4 9.432 9.432 0 0 1-18.8 1.346 9.2 9.2 0 0 1 8.757-9.746z" transform="translate(-953.788 -1288.165)" style="fill:#6dc384"/>
                <path data-name="Path 7573" d="M1108.943 859.2c7.305-.572 13.1 3.379 13.029 8.645s-5.735 9.891-12.635 10.455c-6.868.559-12.744-3.135-13.072-8.389-.285-5.257 5.387-10.134 12.678-10.711z" transform="translate(-917.858 -820.787)" style="fill:#6dc384"/>
                <path data-name="Path 7575" d="M850.227 1506.43a9.561 9.561 0 0 1-9.559 9.561H623.725a9.562 9.562 0 0 1-9.565-9.561v-175.051a9.563 9.563 0 0 1 9.565-9.561h216.943a9.561 9.561 0 0 1 9.559 9.561z" transform="translate(-544.836 -1178.783)" style="fill:#8c7661"/>
                <path data-name="Path 7576" d="M623.725 1321.818a9.563 9.563 0 0 0-9.565 9.561v175.051a9.562 9.562 0 0 0 9.565 9.561H732.2v-194.173z" transform="translate(-544.836 -1178.783)" style="fill:#a08d7c"/>
                <path data-name="Path 7577" d="M693.276 1402.727h15.955a1.687 1.687 0 1 1 0 3.371h-15.955a1.687 1.687 0 1 1 0-3.371zm26.6 0h15.953a1.687 1.687 0 1 1 0 3.371h-15.958a1.687 1.687 0 1 1 0-3.371zm26.587 0h15.958a1.687 1.687 0 1 1 0 3.371h-15.963a1.687 1.687 0 1 1 0-3.371zm26.593 0h15.958a1.687 1.687 0 1 1 0 3.371h-15.963a1.687 1.687 0 1 1 0-3.371zm26.6 0H815.6a1.687 1.687 0 1 1 0 3.371h-15.953a1.687 1.687 0 1 1 0-3.371zm26.591 0H842.2a1.687 1.687 0 1 1 0 3.371h-15.962a1.687 1.687 0 1 1 0-3.371zm26.591 0h15.953a1.687 1.687 0 1 1 0 3.371h-15.962a1.687 1.687 0 1 1 0-3.371zm26.593 0h2.233c5.557 0 10.085 4.16 10.085 9.281v.927a1.758 1.758 0 0 1-3.513 0v-.927c0-3.259-2.947-5.91-6.572-5.91h-2.233a1.687 1.687 0 1 1 0-3.371zm10.561 18.748a1.72 1.72 0 0 1 1.757 1.684v15.329a1.758 1.758 0 0 1-3.513 0v-15.329a1.722 1.722 0 0 1 1.748-1.684zm0 25.55a1.723 1.723 0 0 1 1.757 1.689v15.328a1.758 1.758 0 0 1-3.513 0v-15.328a1.724 1.724 0 0 1 1.748-1.689zm0 25.551a1.722 1.722 0 0 1 1.757 1.685v15.333a1.758 1.758 0 0 1-3.513 0v-15.333a1.723 1.723 0 0 1 1.748-1.685zm0 25.554a1.72 1.72 0 0 1 1.757 1.685v15.33a1.758 1.758 0 0 1-3.513 0v-15.33a1.722 1.722 0 0 1 1.748-1.686zm0 25.553a1.72 1.72 0 0 1 1.757 1.688v15.329a1.758 1.758 0 0 1-3.513 0v-15.33a1.722 1.722 0 0 1 1.748-1.688zm0 25.594a1.685 1.685 0 0 1 1.757 1.64v.094c0 5.118-4.528 9.28-10.085 9.28h-3.2a1.687 1.687 0 1 1 0-3.372h3.2c3.625 0 6.572-2.651 6.572-5.907a1.763 1.763 0 0 1 1.748-1.735zm-197.684 7.623h.118l15.838.009a1.687 1.687 0 1 1 0 3.372h-15.491c-.195 0-.384 0-.581-.018a1.685 1.685 0 1 1 .116-3.368zm26.594.013h15.952a1.688 1.688 0 1 1 0 3.372H718.9a1.688 1.688 0 1 1 0-3.372zm26.593 0h15.951a1.687 1.687 0 1 1 0 3.372H745.5a1.687 1.687 0 1 1 0-3.372zm26.592 0h15.955a1.687 1.687 0 1 1 0 3.372h-15.955a1.687 1.687 0 1 1 0-3.372zm26.587 0h15.963a1.687 1.687 0 1 1 0 3.372h-15.963a1.687 1.687 0 1 1 0-3.372zm26.6 0h15.955a1.688 1.688 0 1 1 0 3.372H825.27a1.687 1.687 0 1 1 0-3.372zm26.594 0h15.954a1.687 1.687 0 1 1 0 3.372h-15.958a1.687 1.687 0 1 1 0-3.372z" transform="translate(-603.947 -1241.389)" style="fill:#f0f1f1"/>
                <path data-name="Path 7578" d="M1352.866 1652.3a7.463 7.463 0 0 1-7.461 7.454h-95.855a7.459 7.459 0 0 1-7.458-7.454v-60.461a7.459 7.459 0 0 1 7.458-7.449h95.855a7.463 7.463 0 0 1 7.461 7.449z" transform="translate(-1030.7 -1381.95)" style="fill:#715f51"/>
                <path data-name="Path 7579" d="M1372.465 1701.462a14.471 14.471 0 1 1-14.47-14.47 14.466 14.466 0 0 1 14.47 14.47z" transform="translate(-1109.182 -1461.339)" style="fill:#f0f1f1"/>
                <path data-name="Path 7580" d="M393.652 1869.771a42.275 42.275 0 1 1-28.537-52.534 42.279 42.279 0 0 1 28.537 52.534z" transform="translate(-310.132 -1560.762)" style="fill:#efa748"/>
                <path data-name="Path 7581" d="M412.46 1893.718a34.635 34.635 0 1 1-23.377-43.047 34.635 34.635 0 0 1 23.377 43.047z" transform="translate(-336.267 -1586.878)" style="fill:#fed248"/>
                <path data-name="Path 7582" d="M440.312 1924.927q.824-3.981-6.015-6.027-6.869-2.061-7.969 1.6a3.523 3.523 0 0 0 1.238 3.913 47.875 47.875 0 0 0 8.212 4.96q6.3 3.292 8.53 7.232a10.757 10.757 0 0 1 .791 8.752 10.04 10.04 0 0 1-7.621 7.172 22.625 22.625 0 0 1-12.419-.389q-15.651-4.7-14.244-17.346l8.846 1.893q-.928 6.578 7.375 9.071 7.786 2.326 9.358-2.944a3.947 3.947 0 0 0-.848-4.045c-1.022-1.139-3.731-2.86-8.105-5.159s-7.314-4.692-8.819-7.176a9.392 9.392 0 0 1-1-7.887 9.721 9.721 0 0 1 6.244-6.379q4.916-1.9 12.5.376 15.038 4.511 12.78 14.692z" transform="translate(-387.407 -1634.901)" style="fill:#e29524"/>
                <path data-name="Path 7583" d="m514.735 1892.283-8.227-2.469 2.242-7.483 8.233 2.469z" transform="translate(-461.539 -1612.482)" style="fill:#e29524"/>
                <path data-name="Path 7606" d="M0 0h7.817v8.6H0z" transform="rotate(-73.296 232.2 139.79)" style="fill:#e29524"/>
                <path data-name="Path 7584" d="M326.658 1858.066c0-3.32 1.467-8.369 2.563-9.466 1.07-1.072 6.143-2.563 9.464-2.563-3.32 0-8.2-1.3-9.464-2.562-1.323-1.321-2.563-6.141-2.563-9.464 0 3.405-1.279 8.18-2.731 9.627-1.487 1.493-6.062 2.4-9.294 2.4 3.318 0 8.216 1.317 9.462 2.563 1.264 1.264 2.563 6.145 2.563 9.465z" transform="translate(-313.075 -1575.096)" style="fill:#fff"/>
                <path data-name="Path 7585" d="M388.631 1919.277a6.94 6.94 0 0 1 .909-3.368 7.037 7.037 0 0 1 3.37-.913 6.5 6.5 0 0 1-3.37-.913 6.387 6.387 0 0 1-.909-3.371 6.253 6.253 0 0 1-.972 3.429 5.905 5.905 0 0 1-3.311.854 3.51 3.51 0 0 1 4.284 4.281z" transform="translate(-367.017 -1634.443)" style="fill:#fff"/>
                <path data-name="Path 7586" d="M313.694 1947.957a9.63 9.63 0 0 1 1.262-4.674 9.706 9.706 0 0 1 4.678-1.267c-1.64 0-4.054-.643-4.678-1.264-.654-.655-1.262-3.038-1.262-4.678 0 1.682-.634 4.042-1.35 4.756-.738.736-2.993 1.186-4.594 1.186 1.641 0 4.059.649 4.677 1.267s1.267 3.033 1.267 4.674z" transform="translate(-307.75 -1654.066)" style="fill:#fff"/>
                <path data-name="Path 7587" d="M1671.229 825.283a46.023 46.023 0 1 1-31.064-57.195 46.023 46.023 0 0 1 31.064 57.195z" transform="translate(-1292.982 -748.859)" style="fill:#efa748"/>
                <path data-name="Path 7588" d="M1691.7 851.364a37.706 37.706 0 1 1-25.45-46.862 37.7 37.7 0 0 1 25.45 46.862z" transform="translate(-1321.43 -777.301)" style="fill:#fed248"/>
                <path data-name="Path 7589" d="M1722.017 885.331q.9-4.335-6.547-6.561-7.476-2.244-8.674 1.742a3.838 3.838 0 0 0 1.347 4.26q2.077 1.828 8.941 5.4t9.288 7.872a11.725 11.725 0 0 1 .863 9.533 10.942 10.942 0 0 1-8.3 7.807 24.609 24.609 0 0 1-13.519-.427q-17.04-5.11-15.512-18.885l9.636 2.06q-1.013 7.163 8.028 9.876 8.469 2.535 10.188-3.2a4.306 4.306 0 0 0-.923-4.4q-1.676-1.862-8.825-5.616t-9.6-7.811a10.249 10.249 0 0 1-1.1-8.59 10.586 10.586 0 0 1 6.8-6.946q5.346-2.072 13.61.41 16.374 4.908 13.917 16z" transform="translate(-1377.099 -829.574)" style="fill:#e29524"/>
                <path data-name="Path 7590" d="m1803.054 849.8-8.957-2.688 2.438-8.149 8.965 2.685z" transform="translate(-1457.816 -805.171)" style="fill:#e29524"/>
                <path data-name="Path 7607" d="M0 0h8.51v9.358H0z" transform="rotate(-73.292 221.726 -170.928)" style="fill:#e29524"/>
                <path data-name="Path 7591" d="M1894.908 836.541c0-3.616 1.6-9.115 2.79-10.308 1.167-1.166 6.687-2.787 10.3-2.789-3.614 0-8.928-1.414-10.3-2.786-1.44-1.439-2.79-6.692-2.79-10.305 0 3.7-1.4 8.908-2.967 10.478-1.626 1.624-6.6 2.613-10.125 2.613 3.613 0 8.947 1.432 10.3 2.789 1.379 1.376 2.792 6.692 2.792 10.308z" transform="translate(-1525.689 -783.037)" style="fill:#fff"/>
                <path data-name="Path 7592" d="M1962.385 903.189a3.821 3.821 0 0 1 4.662-4.664 7.083 7.083 0 0 1-3.667-.992 6.923 6.923 0 0 1-.994-3.667 6.794 6.794 0 0 1-1.056 3.731 6.414 6.414 0 0 1-3.6.928 3.819 3.819 0 0 1 4.658 4.664z" transform="translate(-1584.425 -847.655)" style="fill:#fff"/>
                <path data-name="Path 7593" d="M1880.8 934.4c0-1.788.789-4.5 1.379-5.091s3.3-1.38 5.091-1.38c-1.787 0-4.413-.7-5.091-1.376-.711-.711-1.379-3.305-1.379-5.091 0 1.83-.688 4.4-1.466 5.177-.8.8-3.26 1.291-5 1.291 1.786 0 4.42.708 5.089 1.38s1.377 3.305 1.377 5.09z" transform="translate(-1519.897 -869.01)" style="fill:#fff"/>
                <path data-name="Path 7608" d="M0 0h94.629v13.709H0z" transform="translate(330.669 253.904)" style="fill:#efa748"/>
                <path data-name="Path 7609" d="M0 0h94.629v6.854H0z" transform="translate(330.669 253.904)" style="fill:#fed248"/>
                <path data-name="Path 7610" d="M0 0h94.629v13.709H0z" transform="translate(341.201 267.613)" style="fill:#efa748"/>
                <path data-name="Path 7611" d="M0 0h94.629v6.854H0z" transform="translate(341.201 267.613)" style="fill:#fed248"/>
                <path data-name="Path 7612" d="M0 0h94.629v13.709H0z" transform="translate(320.14 281.324)" style="fill:#efa748"/>
                <path data-name="Path 7613" d="M0 0h94.629v6.854H0z" transform="translate(320.14 281.324)" style="fill:#fed248"/>
                <path data-name="Path 7614" d="M0 0h94.629v13.709H0z" transform="translate(330.669 295.033)" style="fill:#efa748"/>
                <path data-name="Path 7615" d="M0 0h94.629v6.854H0z" transform="translate(330.669 295.033)" style="fill:#fed248"/>
                <path data-name="Path 7616" d="M0 0h94.629v13.709H0z" transform="translate(339.889 308.742)" style="fill:#efa748"/>
                <path data-name="Path 7617" d="M0 0h94.629v6.855H0z" transform="translate(339.889 308.742)" style="fill:#fed248"/>
                <path data-name="Path 7618" d="M0 0h94.629v13.709H0z" transform="translate(350.42 322.451)" style="fill:#efa748"/>
                <path data-name="Path 7619" d="M0 0h94.629v6.854H0z" transform="translate(350.42 322.451)" style="fill:#fed248"/>
                <path data-name="Path 7594" d="M1880.029 1116.209a13.35 13.35 0 0 0 7.558-5.42c3.089-4.5 3.023-6.058 1.956-6.06-1.441 0-3.163 4.843-5.908 5.8-6.349 2.215-5.343 4.679-5.343 4.679z" transform="translate(-1522.917 -1010.811)" style="fill:#d1d1d1"/>
                <path data-name="Path 7595" d="M1887.145 1174.139c4.532 4.287 21.069 5.035 29.784 3.024 5.28-1.218-4.367-10.518-4.367-10.518s-16.632 3.151-20.2.326-10.279-19.889-10.279-19.889l-4.463.441s2.58 20.05 9.525 26.616z" transform="translate(-1522.447 -1043.581)" style="fill:#5e5e5e"/>
                <path data-name="Path 7596" d="M1789.18 1128.278s-.094-5.462-2.571-8.168-5.4-7.354-5.674-4.9-.952 5.69.54 7.405a26.35 26.35 0 0 1 3.781 6.712c.106.75 3.924-1.049 3.924-1.049z" transform="translate(-1447.327 -1018.384)" style="fill:#d1d1d1"/>
                <path data-name="Path 7597" d="M2001.142 1791.253s-3.751-.616-4.868-.622c-3.9-.02-8.536 1.335-8.961 4.339-.159 1.121 11.617 1.585 13.824.922.001 0 1.329-5.768.005-4.639z" transform="translate(-1607.317 -1541.529)" style="fill:#737373"/>
                <path data-name="Path 7598" d="M1904.124 1793.234s-4.04-.534-5.234-.519c-4.176.059-9.113 1.5-9.445 4.472-.124 1.11 12.532 1.322 14.864.626 0 0 1.184-5.72-.185-4.579z" transform="translate(-1531.592 -1543.142)" style="fill:#737373"/>
                <path data-name="Path 7599" d="M1989.723 1428.16s4.112-17.73 5.822-22.97c3.415-10.46.618-22.555.618-22.555l-17.956-2.548c-.238 3.081-.627 6.129-.975 9.254-.469 4.257.2 8.521-.388 12.758a7.148 7.148 0 0 1 .929 5.114 23.559 23.559 0 0 1 2.092-2.173s-1.716 15.322-1.427 23.25c.2 5.412 8.5 44.892 8.5 44.892s4.472 1.115 6.273.841-3.488-45.863-3.488-45.863z" transform="translate(-1599.217 -1223.869)" style="fill:#41bed2"/>
                <path data-name="Path 7600" d="M1944.523 1399.337c1.313-4.086.812-12.975.787-17.789-.005-1.2-1.571-1.882-1.942-3.048l-17.9 3c.234 2.119.107 4.854-.5 12.82-.5 6.489-4.253 18.692-5.1 28.575-.8 9.268 1.994 49.753 1.994 49.753s6.179 1.382 6.555-.253c1.385-6.033 2.963-36.008 3.123-46.73.02-1.289 5.451-12.768 10.9-21.393-.005.003 1.6-3.428 2.083-4.935z" transform="translate(-1555.014 -1222.641)" style="fill:#42e0ff"/>
                <path data-name="Path 7601" d="m1977.571 1193.776-.635-9.442 9.976-4.4 1.471 13.844z" transform="translate(-1599.288 -1068.998)" style="fill:#f4b382"/>
                <path data-name="Path 7602" d="M1930.731 1227.44s-2.792-3.539 2.509-3.924a138.528 138.528 0 0 1 13.866-.47c4.186.218 10.408-.476 12.549 3.48 2.63 4.863.419 19.169.21 24.442a106.64 106.64 0 0 0 .406 12.341s-20.221 6.374-27.637 1.06a236.506 236.506 0 0 0-2.646-24.943c-1.576-9.38.743-11.986.743-11.986z" transform="translate(-1562.537 -1102.317)" style="fill:#e4472d"/>
                <path data-name="Path 7603" d="M1961.494 1136.736c.58 3.015 9.431 3 13.275-4.859s1.7-12.99-2.7-13.261-13.869 1.042-10.575 18.12z" transform="translate(-1586.812 -1021.533)" style="fill:#fbc69a"/>
                <path data-name="Path 7604" d="M1960.488 1120.257s.079-.276-2.933-2.412c-3.542-2.514.517-8.189 5.992-6 4.928 1.968 10.662-.161 11.081 7.2.17 2.977-.739 10.044-3.292 12.049-3.057 2.4-7.166-.611-7.166-.611s1.283-6.422 0-6.534c-2.945-.257-2.076 3.077-2.076 3.077s-2.053-.498-1.606-6.769z" transform="translate(-1583.263 -1015.935)" style="fill:#192f47"/>
                <path data-name="Path 7605" d="m1802.338 1168.471-5.313 1.427s2 26.743 7.322 29.176c4.08 1.864 24.365-2.841 24.365-2.841s9.3-12.292 4.821-14.532-21.04 6.618-24.693 7.447z" transform="translate(-1460.081 -1060.132)" style="fill:#737373"/>
            </g>
        </g>
    </g>
</svg>
