<svg xmlns="http://www.w3.org/2000/svg" xmlns:xlink="http://www.w3.org/1999/xlink" width="319.855" height="105.256" viewBox="0 0 319.855 105.256">
    <defs>
        <linearGradient id="6u2ror2dpb" x1=".5" x2=".5" y2="1" gradientUnits="objectBoundingBox">
            <stop offset="0" stop-color="#003f76"/>
            <stop offset="1" stop-color="#fff"/>
        </linearGradient>
        <linearGradient id="f3wxc01hua" x1=".5" x2=".5" y2="1" gradientUnits="objectBoundingBox">
            <stop offset="0" stop-color="#5db4ff"/>
            <stop offset="1" stop-color="#fff"/>
        </linearGradient>
        <linearGradient id="p4q9ng60tc" x1=".672" y1=".136" x2=".246" y2=".678" xlink:href="#f3wxc01hua"/>
    </defs>
    <g data-name="Group 9131">
        <g data-name="Group 42">
            <g data-name="Group 38">
                <g data-name="Group 37">
                    <g data-name="Group 36">
                        <path data-name="Path 173" d="m-13744.533-3693.349 47.738 29.384 47.5-28.633-43.9-28.056-39.168 20.46z" transform="translate(13746.4 3762.18)" style="fill:#02264a"/>
                        <path data-name="Path 172" d="m-13635.771-3767.755 1.377 39.5 6.8 1.656-1.045-39.618-4.133-3.842z" transform="translate(13679.871 3792.403)" style="fill:#02264a"/>
                        <path data-name="Path 171" d="M-13668.983-3783.816V-3758l10.875 23.005h7.646l-.494-38.142" transform="translate(13700.187 3800.816)" style="fill:url(#6u2ror2dpb)"/>
                        <g data-name="Group 35">
                            <path data-name="Path 157" d="m-14286.134-2187.264 16.676-10.033-.2 30.319 6.768 9.726-21.949 32.923-18.635-9.127-3.652-2-14.633-11.044 4.758-8.99 9.873-3.023 16.693-10.02v22.034l4.684-6.5z" transform="translate(14335.388 2214.96)" style="fill:#00264a"/>
                            <path data-name="Path 148" d="m0 0 19.2 5.9 4.976 19.072L5.22 20.269z" transform="rotate(-45 36.235 -29.117)" style="fill:url(#f3wxc01hua)"/>
                            <path data-name="Path 149" d="m0 0 19.2 5.9 4.976 19.072L5.22 20.269z" transform="rotate(-45 74.327 -46.836)" style="fill:url(#f3wxc01hua)"/>
                            <path data-name="Path 152" d="m-14597.985-2053.6.031 30.628 16.621-10.227-.029-30.417z" transform="translate(14670.952 2103.01)" style="fill:#02264a"/>
                            <path data-name="Path 159" d="M-13244.836-2104.856v22.712l17.857 11.092v-23.148z" transform="translate(13255.327 2150.648)" style="fill:url(#6u2ror2dpb)"/>
                            <path data-name="Path 160" d="m-13189.729-2044.733 17.967 10.455v13.357l-17.967-11.378z" transform="translate(13222.007 2114.648)" style="fill:url(#6u2ror2dpb)"/>
                            <path data-name="Path 161" d="m-13133.481-2127.9 18.115 10.555v30.687l-6.2-3.568-2.225-1.18-9.693-6.368z" transform="translate(13188.378 2166.738)" style="fill:url(#6u2ror2dpb)"/>
                            <path data-name="Path 162" d="m0 0 12.686 3.9 3.291 12.6L11.8 4.791z" transform="rotate(-45 39.298 -36.184)" style="fill:#1469b1"/>
                            <path data-name="Path 163" d="m0 0 12.686 3.9 3.291 12.6L11.8 4.791z" transform="rotate(-45 77.417 -53.97)" style="fill:#1469b1"/>
                            <path data-name="Path 165" d="m0 0 19.2 5.9 4.976 19.072L5.22 20.269z" transform="rotate(-45 100.499 -3.962)" style="fill:url(#p4q9ng60tc)"/>
                            <path data-name="Path 166" d="m0 0 12.686 3.9 3.291 12.6L12 4.583z" transform="rotate(-45 103.263 -11.445)" style="fill:#1469b1"/>
                            <path data-name="Path 167" d="m0 0 19.2 5.9 4.976 19.072L5.22 20.269z" transform="rotate(-45 60.436 10.562)" style="fill:url(#f3wxc01hua)"/>
                            <path data-name="Path 168" d="m0 0 12.686 3.9 3.291 12.6L11.8 4.791z" transform="rotate(-45 63.5 3.494)" style="fill:#1469b1"/>
                            <path data-name="Path 169" d="m-14598.035-2053.173-.115 13.181 16.625-10.227.115-12.969z" transform="translate(14648.402 2133.702)" style="fill:#02264a"/>
                            <path data-name="Path 170" d="m-14457.863-2011.045-2.088-1.286.65-1.055 1.439.886.557-.339.648 1.06zm3.855-2.355-.648-1.06 2.65-1.619.646 1.06zm-8.588-.559-2.643-1.627.648-1.055 2.645 1.627zm13.887-2.678-.648-1.061 2.648-1.618.648 1.06zm-19.176-.576-2.643-1.628.652-1.055 2.643 1.627zm24.473-2.661-.646-1.06 2.65-1.619.646 1.06zm-29.758-.594-2.645-1.627.648-1.056 2.645 1.627zm35.059-2.644-.648-1.06 2.65-1.619.646 1.06zm-40.346-.612-2.646-1.627.652-1.055 2.645 1.628zm45.645-2.625-.648-1.06 2.65-1.619.646 1.061zm-50.934-.629-2.645-1.628.65-1.055 2.645 1.627zm56.232-2.608-.65-1.06 2.65-1.618.646 1.06zm-61.521-.647-2.645-1.627.652-1.055 2.645 1.627zm66.818-2.59-.646-1.06 2.65-1.619.645 1.06zm-72.1-.665-2.645-1.627.65-1.055 2.645 1.628zm77.4-2.571-.648-1.06 2.648-1.619.648 1.06zm-82.693-.683-2.645-1.628.652-1.055 2.643 1.627zm87.99-2.555-.648-1.06 2.65-1.619.646 1.06zm-93.279-.7-2.643-1.627.65-1.055 2.645 1.627z" transform="translate(14507.541 2116.301)" style="fill:#060203"/>
                        </g>
                    </g>
                </g>
            </g>
        </g>
        <path data-name="Path 174" d="M5.894-49.538a3.357 3.357 0 0 1 .785-2.436 3.3 3.3 0 0 1 2.453-.8h8.01a15.869 15.869 0 0 1 5.756.849 5.694 5.694 0 0 1 3.09 2.747 11.429 11.429 0 0 1 .965 5.139v3.139q0 3.663-1.619 5.478t-5.345 2.368l8.534 12.983h-4.189l-9.939-15.634h2.027a14.023 14.023 0 0 0 4.12-.474 3.493 3.493 0 0 0 2.093-1.586 6.51 6.51 0 0 0 .621-3.139v-3.136a6.818 6.818 0 0 0-.589-3.139 3.341 3.341 0 0 0-2-1.589 13.06 13.06 0 0 0-3.989-.474H10.9a1.515 1.515 0 0 0-1.046.261 1.515 1.515 0 0 0-.261 1.046v27.862h-3.7zm31.261 24.624a1.515 1.515 0 0 0 .261 1.046 1.515 1.515 0 0 0 1.046.261h14.815v3.532H36.7a3.357 3.357 0 0 1-2.436-.785 3.3 3.3 0 0 1-.8-2.453v-26.225a3.357 3.357 0 0 1 .785-2.436 3.3 3.3 0 0 1 2.453-.8h16.575v3.532H38.463a1.515 1.515 0 0 0-1.046.261 1.515 1.515 0 0 0-.261 1.046v9.516H52.59v3.27H37.155zm26.359-27.861v32.7h-3.7v-32.7zm14.879 3.532h-9.81v-3.532h23.25v3.532h-9.747v29.17h-3.7zm15.368 25.638h9.287a17.1 17.1 0 0 0 2.7-.163 2.5 2.5 0 0 0 1.455-.687 2.274 2.274 0 0 0 .491-1.6 2.856 2.856 0 0 0-.818-2.256 6.457 6.457 0 0 0-3.008-1.112l-4.317-.785a14.4 14.4 0 0 1-3.826-1.144 4.107 4.107 0 0 1-1.929-1.962 8.607 8.607 0 0 1-.589-3.532q0-3.4 1.863-4.758t5.887-1.357h9.451v3.532h-8.83a13.872 13.872 0 0 0-2.794.212 2.333 2.333 0 0 0-1.423.818 2.924 2.924 0 0 0-.458 1.782 2.62 2.62 0 0 0 .72 2.011 5.286 5.286 0 0 0 2.649 1l4.186.752a16.875 16.875 0 0 1 4.2 1.195 4.372 4.372 0 0 1 2.111 2.044 8.852 8.852 0 0 1 .654 3.793 6.217 6.217 0 0 1-.85 3.532 4.427 4.427 0 0 1-2.436 1.733 14.211 14.211 0 0 1-4.1.491H93.761zm39.5 3.532a3.357 3.357 0 0 1-2.436-.785 3.3 3.3 0 0 1-.8-2.453v-26.227a3.357 3.357 0 0 1 .785-2.436 3.3 3.3 0 0 1 2.453-.8h7.031q6.017 0 9.173 2.584t3.155 8.764v10.007q0 5.592-2.878 8.47t-9.45 2.877zm.458-4.84a1.515 1.515 0 0 0 .261 1.046 1.515 1.515 0 0 0 1.046.261h5.265q4.448 0 6.54-1.782t2.093-6.033v-10.006q0-4.022-1.995-5.919t-6.638-1.9h-5.265a1.515 1.515 0 0 0-1.046.261 1.515 1.515 0 0 0-.261 1.046zM165.735-49.6a4.657 4.657 0 0 1 1.357-2.436 3.974 3.974 0 0 1 2.665-.8 3.966 3.966 0 0 1 2.584.752 4.686 4.686 0 0 1 1.373 2.518l10.007 29.5H179.8l-9.65-28.621a.392.392 0 0 0-.392-.327.392.392 0 0 0-.392.327l-9.646 28.613h-3.99zm31.884 29.69a14.4 14.4 0 0 1-6.181-1.128 7.078 7.078 0 0 1-3.467-3.565A15.543 15.543 0 0 1 186.86-31v-10.853a15.542 15.542 0 0 1 1.112-6.4 7.078 7.078 0 0 1 3.467-3.565 14.4 14.4 0 0 1 6.181-1.128h1.537a14.4 14.4 0 0 1 6.181 1.128 7.078 7.078 0 0 1 3.467 3.565 15.542 15.542 0 0 1 1.112 6.4V-31a15.542 15.542 0 0 1-1.112 6.4 7.078 7.078 0 0 1-3.467 3.565 14.4 14.4 0 0 1-6.18 1.126zm.785-3.5a12.063 12.063 0 0 0 4.628-.72 4.558 4.558 0 0 0 2.437-2.354A11.022 11.022 0 0 0 206.22-31v-10.853a11.022 11.022 0 0 0-.752-4.513 4.557 4.557 0 0 0-2.436-2.354 12.064 12.064 0 0 0-4.627-.72 12.17 12.17 0 0 0-4.66.72 4.558 4.558 0 0 0-2.436 2.354 11.022 11.022 0 0 0-.752 4.513V-31a11.022 11.022 0 0 0 .752 4.513 4.558 4.558 0 0 0 2.436 2.354 12.17 12.17 0 0 0 4.659.72z" transform="translate(109.929 93.139)" style="fill:#fff"/>
    </g>
</svg>
