<svg xmlns="http://www.w3.org/2000/svg" width="45.317" height="46.002" viewBox="0 0 45.317 46.002">
    <g data-name="Group 9152">
        <path data-name="Path 8025" d="M427.082 254.15h26.288c.034.026.066.07.1.075a4.614 4.614 0 0 1 3.715 4.686c-.075 5.806-.024 11.613-.024 17.419v.573c.422.049.783.073 1.137.136a11.044 11.044 0 0 1 8.982 8.54c.1.451.18.909.269 1.363v2.078a2.519 2.519 0 0 0-.093.343 11.11 11.11 0 0 1-17.469 7.706 1.557 1.557 0 0 0-.857-.276c-7.075-.015-14.15 0-21.225-.029a5.026 5.026 0 0 1-2.05-.412 4.387 4.387 0 0 1-2.623-4.313q.009-10 0-20.007v-13.187a4.452 4.452 0 0 1 3.689-4.615.658.658 0 0 0 .161-.08zm20.1 40.209a.646.646 0 0 0-.026-.14c-.082-.144-.169-.284-.251-.428a10.735 10.735 0 0 1-1.413-7.68 10.891 10.891 0 0 1 8.681-8.957c.379-.094.508-.213.507-.61q-.019-8.828-.01-17.655a1.97 1.97 0 0 0-2.212-2.227H427.99a2.009 2.009 0 0 0-2.262 2.283v33.053a2.123 2.123 0 0 0 2.375 2.361h19.084zm9.306 2.291a8.651 8.651 0 1 0-8.633-8.64 8.694 8.694 0 0 0 8.638 8.64z" style="fill:#fff;stroke:#fff" transform="translate(-422.736 -253.65)"/>
        <path data-name="Path 8026" d="M504.434 430.725h-9.213a1.247 1.247 0 1 1-.034-2.478q9.236-.007 18.471 0a1.259 1.259 0 0 1 1.367 1.05 1.2 1.2 0 0 1-.846 1.368 2.029 2.029 0 0 1-.578.059q-4.583.003-9.167.001z" transform="translate(-486.925 -411.984)" style="fill:#fff;stroke:#fff"/>
        <path data-name="Path 8027" d="M504.227 335.774h-9.3a1.207 1.207 0 0 1-1.209-.774 1.049 1.049 0 0 1 .282-1.313 2.379 2.379 0 0 1 1.15-.4 18.779 18.779 0 0 1 1.9-.017h16.033a4.84 4.84 0 0 1 .719.049 1.2 1.2 0 0 1 1.048 1.3 1.175 1.175 0 0 1-1.175 1.138c-1.234.02-2.469.008-3.7.008z" transform="translate(-486.732 -325.597)" style="fill:#fff;stroke:#fff"/>
        <path data-name="Path 8028" d="M501.017 523.691h5.777a1.244 1.244 0 1 1 .012 2.478q-5.822.008-11.644 0a1.245 1.245 0 1 1 .033-2.478h5.822z" transform="translate(-486.923 -498.792)" style="fill:#fff;stroke:#fff"/>
        <path data-name="Path 8029" d="M499.717 621.076h-4.47a1.258 1.258 0 1 1-.049-2.5c1.159-.021 2.318-.006 3.477-.006h5.508a1.3 1.3 0 0 1 1.451 1.015 1.219 1.219 0 0 1-1.266 1.484c-1.55.012-3.1.007-4.651.007z" transform="translate(-486.923 -585.08)" style="fill:#fff;stroke:#fff"/>
        <path data-name="Path 8030" d="M735.1 588.45c1.542-1.545 3.038-3.068 4.567-4.556a2.153 2.153 0 0 1 1-.52 1.034 1.034 0 0 1 1.145.622 1.139 1.139 0 0 1-.091 1.274 3.033 3.033 0 0 1-.333.367l-5.2 5.2c-.81.809-1.375.806-2.19-.009-.776-.776-1.558-1.548-2.325-2.333a1.14 1.14 0 0 1-.317-1.237 1.235 1.235 0 0 1 2.134-.427c.531.532 1.058 1.069 1.61 1.619z" transform="translate(-702.903 -553.051)" style="fill:#fff;stroke:#fff"/>
    </g>
</svg>
