<svg xmlns="http://www.w3.org/2000/svg" width="32.205" height="32.205" viewBox="0 0 32.205 32.205">
    <g data-name="Group 9132" transform="translate(-704 -10034.49)">
        <path data-name="Path 551" d="M2635.518 139.254h-7.509a6.077 6.077 0 0 1-6.07-6.07v-7.509a6.077 6.077 0 0 1 6.07-6.07h7.509a6.077 6.077 0 0 1 6.07 6.07v7.509a6.077 6.077 0 0 1-6.07 6.07zm-7.509-17.459a3.884 3.884 0 0 0-3.88 3.88v7.509a3.884 3.884 0 0 0 3.88 3.88h7.509a3.884 3.884 0 0 0 3.88-3.88v-7.509a3.884 3.884 0 0 0-3.88-3.88z" transform="translate(-1912.191 9921.163)" style="fill:#99b9d9"/>
        <path data-name="Path 552" d="M2651.7 154.383a5.022 5.022 0 1 1 5.021-5.022 5.027 5.027 0 0 1-5.021 5.022zm0-8.072a3.051 3.051 0 1 0 3.05 3.05 3.054 3.054 0 0 0-3.05-3.05z" transform="translate(-1932.125 9901.231)" style="fill:#99b9d9"/>
        <circle data-name="Ellipse 11" cx=".849" cy=".849" r=".849" transform="translate(723.998 10044.43)" style="fill:#99b9d9"/>
        <path data-name="Rectangle 52" d="M3-.5h25.205a3.5 3.5 0 0 1 3.5 3.5v25.205a3.5 3.5 0 0 1-3.5 3.5H3a3.5 3.5 0 0 1-3.5-3.5V3A3.5 3.5 0 0 1 3-.5zm25.205 31.205a2.5 2.5 0 0 0 2.5-2.5V3a2.5 2.5 0 0 0-2.5-2.5H3A2.5 2.5 0 0 0 .5 3v25.205a2.5 2.5 0 0 0 2.5 2.5z" transform="translate(704.5 10034.99)" style="opacity:.052;fill:#99b9d9"/>
    </g>
</svg>
