<svg xmlns="http://www.w3.org/2000/svg" width="32.205" height="32.205" viewBox="0 0 32.205 32.205">
    <g data-name="Group 9136">
        <path data-name="Rectangle 52" d="M3-.5h25.205a3.5 3.5 0 0 1 3.5 3.5v25.205a3.5 3.5 0 0 1-3.5 3.5H3a3.5 3.5 0 0 1-3.5-3.5V3A3.5 3.5 0 0 1 3-.5zm25.205 31.205a2.5 2.5 0 0 0 2.5-2.5V3a2.5 2.5 0 0 0-2.5-2.5H3A2.5 2.5 0 0 0 .5 3v25.205a2.5 2.5 0 0 0 2.5 2.5z" transform="translate(.5 .5)" style="opacity:.052;fill:#99b9d9"/>
        <path data-name="Path 555" d="M3606.238 140.942h2.867v1.442s.441-1.455 3.092-1.455c2.188 0 3.754.853 3.754 3.194v7.2h-3.062s.017-6.057.034-6.244a1.717 1.717 0 0 0-1.73-1.714 1.889 1.889 0 0 0-2.053 1.968v5.989h-2.9z" transform="translate(-3592.176 -127.46)" style="fill:#99b9d9"/>
    </g>
</svg>
