<svg xmlns="http://www.w3.org/2000/svg" width="21.107" height="29.413" viewBox="0 0 21.107 29.413">
    <g data-name="Group 192">
        <path data-name="Path 7833" d="M-1775.885-582.473c-.688-.886-1.37-1.744-2.031-2.618a80.541 80.541 0 0 1-5.189-7.657 31.87 31.87 0 0 1-2.677-5.481 10.253 10.253 0 0 1-.63-2.687 8.892 8.892 0 0 1 .227-2.68 10.484 10.484 0 0 1 5.226-6.987 9.871 9.871 0 0 1 4.307-1.278 10.35 10.35 0 0 1 8 2.835 10.387 10.387 0 0 1 3.218 6.083 9.134 9.134 0 0 1-.524 4.722 31.231 31.231 0 0 1-2.146 4.538 71.315 71.315 0 0 1-4.853 7.416c-.907 1.225-1.853 2.422-2.781 3.631-.041.046-.083.09-.147.163zm0-3.388c.049-.059.077-.091.1-.124a83.689 83.689 0 0 0 5.317-7.834 33.7 33.7 0 0 0 2.44-4.844 7.536 7.536 0 0 0 .455-4.346 8.458 8.458 0 0 0-9.767-6.656 8.2 8.2 0 0 0-6.4 5.226 7.168 7.168 0 0 0-.092 5.507 30.024 30.024 0 0 0 1.723 3.684 74.921 74.921 0 0 0 5 7.732c.403.549.809 1.092 1.226 1.656z" transform="translate(1786.433 611.886)" style="fill:#99b9d9"/>
        <path data-name="Path 7834" d="M-1614.582-431.273a4.4 4.4 0 0 1-4.406-4.327 4.391 4.391 0 0 1 4.178-4.477 4.4 4.4 0 0 1 4.627 4.265 4.4 4.4 0 0 1-4.399 4.539zm0-6.716a2.317 2.317 0 0 0-2.322 2.36 2.33 2.33 0 0 0 2.3 2.27 2.338 2.338 0 0 0 2.324-2.368 2.319 2.319 0 0 0-2.307-2.262z" transform="translate(1625.144 446.399)" style="fill:#99b9d9"/>
    </g>
</svg>
