<svg xmlns="http://www.w3.org/2000/svg" xmlns:xlink="http://www.w3.org/1999/xlink" width="278.371" height="91.605" viewBox="0 0 278.371 91.605">
    <defs>
        <linearGradient id="a535ii1n3b" x1=".5" x2=".5" y2="1" gradientUnits="objectBoundingBox">
            <stop offset="0" stop-color="#003f76"/>
            <stop offset="1" stop-color="#fff"/>
        </linearGradient>
        <linearGradient id="wmprgvat5a" x1=".5" x2=".5" y2="1" gradientUnits="objectBoundingBox">
            <stop offset="0" stop-color="#5db4ff"/>
            <stop offset="1" stop-color="#fff"/>
        </linearGradient>
        <linearGradient id="edhkky4hwc" x1=".672" y1=".136" x2=".246" y2=".678" xlink:href="#wmprgvat5a"/>
    </defs>
    <g data-name="Group 43">
        <g data-name="Group 42">
            <g data-name="Group 38">
                <g data-name="Group 37">
                    <g data-name="Group 36">
                        <path data-name="Path 173" d="m-13744.533-3696.891 41.549 25.573 41.334-24.919-38.2-24.417-34.088 17.806z" transform="translate(13746.158 3756.794)" style="fill:#02264a"/>
                        <path data-name="Path 172" d="m-13635.771-3768.054 1.2 34.375 5.918 1.441-.909-34.479-3.6-3.344z" transform="translate(13674.151 3789.505)" style="fill:#02264a"/>
                        <path data-name="Path 171" d="M-13668.982-3783.816v22.47l9.465 20.022h6.654l-.429-33.2" transform="translate(13696.14 3798.611)" style="fill:url(#a535ii1n3b)"/>
                        <g data-name="Group 35">
                            <path data-name="Path 157" d="m-14290.752-2188.564 14.512-8.732-.171 26.387 5.891 8.464-19.1 28.653-16.22-7.944-3.179-1.737-12.734-9.612 4.14-7.824 8.593-2.631 14.529-8.72v19.177l4.076-5.658z" transform="translate(14333.618 2212.669)" style="fill:#00264a"/>
                            <path data-name="Path 148" d="m0 0 16.709 5.136 4.331 16.6L4.543 17.64z" transform="rotate(-45 31.536 -25.34)" style="fill:url(#wmprgvat5a)"/>
                            <path data-name="Path 149" d="m0 0 16.709 5.136 4.331 16.6L4.543 17.64z" transform="rotate(-45 64.687 -40.761)" style="fill:url(#wmprgvat5a)"/>
                            <path data-name="Path 152" d="m-14597.984-2054.9.025 26.656 14.466-8.9-.024-26.472z" transform="translate(14661.488 2097.9)" style="fill:#02264a"/>
                            <path data-name="Path 159" d="M-13244.836-2104.856v19.767l15.543 9.653v-20.144z" transform="translate(13253.967 2144.709)" style="fill:url(#a535ii1n3b)"/>
                            <path data-name="Path 160" d="m-13189.729-2044.733 15.637 9.1v11.625l-15.637-9.9z" transform="translate(13217.82 2105.58)" style="fill:url(#a535ii1n3b)"/>
                            <path data-name="Path 161" d="m-13133.48-2127.9 15.766 9.187v26.707l-5.395-3.106-1.936-1.027-8.436-5.542z" transform="translate(13181.257 2161.701)" style="fill:url(#a535ii1n3b)"/>
                            <path data-name="Path 162" d="m0 0 11.041 3.394 2.864 10.97L10.267 4.17z" transform="rotate(-45 34.202 -31.49)" style="fill:#1469b1"/>
                            <path data-name="Path 163" d="m0 0 11.041 3.394 2.864 10.97L10.267 4.17z" transform="rotate(-45 67.376 -46.97)" style="fill:#1469b1"/>
                            <path data-name="Path 165" d="m0 0 16.709 5.136 4.331 16.6L4.543 17.64z" transform="rotate(-45 87.465 -3.448)" style="fill:url(#edhkky4hwc)"/>
                            <path data-name="Path 166" d="m0 0 11.041 3.394 2.864 10.97-3.458-10.375z" transform="rotate(-45 89.87 -9.961)" style="fill:#1469b1"/>
                            <path data-name="Path 167" d="m0 0 16.709 5.136 4.331 16.6L4.543 17.64z" transform="rotate(-45 52.598 9.192)" style="fill:url(#wmprgvat5a)"/>
                            <path data-name="Path 168" d="m0 0 11.041 3.394 2.864 10.97L10.267 4.17z" transform="rotate(-45 55.264 3.041)" style="fill:#1469b1"/>
                            <path data-name="Path 169" d="m-14598.048-2054.472-.1 11.471 14.467-8.9.1-11.287z" transform="translate(14641.883 2124.557)" style="fill:#02264a"/>
                            <path data-name="Path 170" d="m-14464.3-2015.147-1.818-1.119.566-.918 1.254.771.483-.3.563.922zm3.354-2.05-.563-.922 2.307-1.409.563.923zm-7.474-.486-2.3-1.416.566-.919 2.3 1.416zm12.085-2.331-.563-.923 2.306-1.409.563.922zm-16.687-.5-2.3-1.417.567-.918 2.3 1.416zm21.3-2.316-.563-.922 2.306-1.409.563.923zm-25.9-.517-2.3-1.416.565-.919 2.3 1.416zm30.512-2.3-.563-.922 2.307-1.409.563.922zm-35.112-.532-2.3-1.416.567-.919 2.3 1.417zm39.725-2.285-.563-.922 2.306-1.409.563.923zm-44.328-.548-2.3-1.417.566-.918 2.3 1.416zm48.939-2.27-.564-.922 2.307-1.409.563.922zm-53.541-.563-2.3-1.416.566-.919 2.3 1.416zm58.152-2.254-.563-.922 2.306-1.409.563.923zm-62.754-.579-2.3-1.416.566-.919 2.3 1.417zm67.365-2.238-.563-.923 2.306-1.409.563.922zm-71.967-.594-2.3-1.416.566-.919 2.3 1.416zm76.578-2.223-.564-.922 2.307-1.409.563.922zm-81.182-.61-2.3-1.416.567-.919 2.3 1.416z" transform="translate(14507.541 2106.753)" style="fill:#060203"/>
                        </g>
                    </g>
                </g>
            </g>
        </g>
        <path data-name="Path 174" d="M5.892-49.98a2.921 2.921 0 0 1 .683-2.12 2.876 2.876 0 0 1 2.135-.7h6.971a13.811 13.811 0 0 1 5.01.739 4.956 4.956 0 0 1 2.689 2.391 9.947 9.947 0 0 1 .84 4.472v2.732a6.979 6.979 0 0 1-1.409 4.766 7.527 7.527 0 0 1-4.652 2.06l7.427 11.3h-3.645l-8.65-13.6h1.764a12.2 12.2 0 0 0 3.586-.413 3.04 3.04 0 0 0 1.822-1.38A5.665 5.665 0 0 0 21-42.467V-45.2a5.933 5.933 0 0 0-.512-2.732 2.908 2.908 0 0 0-1.738-1.383 11.366 11.366 0 0 0-3.472-.413h-5.032a1.319 1.319 0 0 0-.911.228 1.319 1.319 0 0 0-.227.911v24.248H5.892zM33.1-28.55a1.319 1.319 0 0 0 .228.911 1.319 1.319 0 0 0 .911.227H47.13v3.074H32.7a2.921 2.921 0 0 1-2.12-.683 2.876 2.876 0 0 1-.7-2.135V-49.98a2.921 2.921 0 0 1 .683-2.12 2.876 2.876 0 0 1 2.135-.7H47.13v3.074H34.238a1.319 1.319 0 0 0-.911.228 1.319 1.319 0 0 0-.228.911v8.287h13.433v2.846H33.1zM56.039-52.8v28.46h-3.217V-52.8zm12.949 3.074H60.45V-52.8h20.236v3.074H72.2v25.386h-3.213zm13.375 22.314h8.082a14.886 14.886 0 0 0 2.348-.142 2.178 2.178 0 0 0 1.267-.6 1.979 1.979 0 0 0 .427-1.395 2.486 2.486 0 0 0-.712-1.964 5.62 5.62 0 0 0-2.618-.968l-3.757-.68a12.53 12.53 0 0 1-3.33-1 3.574 3.574 0 0 1-1.679-1.708 7.491 7.491 0 0 1-.512-3.074q0-2.96 1.621-4.141a8.793 8.793 0 0 1 5.123-1.181h8.225v3.074h-7.683a12.074 12.074 0 0 0-2.432.191 2.03 2.03 0 0 0-1.238.712 2.545 2.545 0 0 0-.4 1.551 2.28 2.28 0 0 0 .626 1.75 4.6 4.6 0 0 0 2.305.868l3.643.654a14.686 14.686 0 0 1 3.654 1.04 3.805 3.805 0 0 1 1.837 1.779 7.7 7.7 0 0 1 .569 3.3 5.41 5.41 0 0 1-.74 3.074 3.853 3.853 0 0 1-2.12 1.508 12.368 12.368 0 0 1-3.572.427h-8.934zm34.379 3.074a2.921 2.921 0 0 1-2.12-.683 2.876 2.876 0 0 1-.7-2.134V-49.98a2.921 2.921 0 0 1 .683-2.12 2.876 2.876 0 0 1 2.135-.7h6.119q5.237 0 7.983 2.249t2.746 7.627v8.709q0 4.867-2.5 7.371t-8.224 2.5zm.4-4.212a1.319 1.319 0 0 0 .228.911 1.319 1.319 0 0 0 .911.228h4.582q3.871 0 5.692-1.551t1.822-5.251v-8.708q0-3.5-1.736-5.151t-5.777-1.651h-4.582a1.319 1.319 0 0 0-.911.228 1.319 1.319 0 0 0-.227.911zM145-50.037a4.053 4.053 0 0 1 1.181-2.12 3.458 3.458 0 0 1 2.319-.7 3.451 3.451 0 0 1 2.249.654 4.078 4.078 0 0 1 1.2 2.191l8.709 25.671h-3.415l-8.4-24.9a.342.342 0 0 0-.342-.285.342.342 0 0 0-.341.285l-8.4 24.9h-3.46zM172.752-24.2a12.53 12.53 0 0 1-5.379-.982 6.16 6.16 0 0 1-3.017-3.1 13.527 13.527 0 0 1-.968-5.566v-9.446a13.527 13.527 0 0 1 .968-5.566 6.16 6.16 0 0 1 3.017-3.1 12.53 12.53 0 0 1 5.379-.982h1.337a12.53 12.53 0 0 1 5.379.982 6.16 6.16 0 0 1 3.017 3.1 13.527 13.527 0 0 1 .968 5.566v9.449a13.527 13.527 0 0 1-.968 5.566 6.16 6.16 0 0 1-3.017 3.1 12.53 12.53 0 0 1-5.378.98zm.683-3.045a10.5 10.5 0 0 0 4.027-.626 3.966 3.966 0 0 0 2.12-2.049 9.593 9.593 0 0 0 .654-3.927v-9.449a9.592 9.592 0 0 0-.654-3.927 3.966 3.966 0 0 0-2.12-2.049 10.5 10.5 0 0 0-4.027-.626 10.591 10.591 0 0 0-4.056.626 3.966 3.966 0 0 0-2.12 2.049 9.593 9.593 0 0 0-.654 3.927v9.449a9.593 9.593 0 0 0 .654 3.927 3.966 3.966 0 0 0 2.12 2.049 10.591 10.591 0 0 0 4.055.626z" transform="translate(94.908 87.927)" style="fill:#02264a"/>
    </g>
</svg>
