<svg xmlns="http://www.w3.org/2000/svg" width="29.945" height="24.119" viewBox="0 0 29.945 24.119">
    <g data-name="Group 319">
        <path data-name="Union 1" d="M4.373 23.318A4.38 4.38 0 0 1 0 18.946V4.374A4.382 4.382 0 0 1 4.373 0h20.4a4.382 4.382 0 0 1 4.373 4.374v14.572a4.38 4.38 0 0 1-4.373 4.372zm-1.46-4.372a1.46 1.46 0 0 0 1.46 1.454h20.4a1.46 1.46 0 0 0 1.46-1.454V7.1l-10.849 7.231a1.485 1.485 0 0 1-.811.243 1.456 1.456 0 0 1-.806-.243L2.913 7.1zm11.659-7.578 11.495-7.663a1.46 1.46 0 0 0-1.295-.785H4.373a1.46 1.46 0 0 0-1.295.785z" transform="translate(.4 .4)" style="fill:#99b9d9;stroke:#011a34;stroke-linecap:round;stroke-width:.8px"/>
    </g>
</svg>
