<svg xmlns="http://www.w3.org/2000/svg" width="61.774" height="57.365" viewBox="0 0 61.774 57.365">
    <g data-name="Group 9142">
        <path data-name="Path 344" d="M143.7 161.9 120 179.532l4.408-10.406z" transform="translate(-85.464 -161.4)" style="stroke-linecap:round;stroke-linejoin:round;fill:#e17726;stroke:#e17726"/>
        <g data-name="Group 193">
            <path data-name="Path 345" d="m77 161.9 23.558 17.777-4.191-10.55z" transform="translate(-73.537 -161.4)" style="fill:#e27625;stroke:#e27625;stroke-linecap:round;stroke-linejoin:round"/>
            <path data-name="Path 346" d="m138.559 218.4-6.359 9.683 13.586 3.758 3.83-13.224z" transform="translate(-88.848 -177.071)" style="fill:#e27625;stroke:#e27625;stroke-linecap:round;stroke-linejoin:round"/>
            <path data-name="Path 347" d="m73.6 218.617 3.83 13.224 13.513-3.758-6.287-9.683z" transform="translate(-72.594 -177.071)" style="fill:#e27625;stroke:#e27625;stroke-linecap:round;stroke-linejoin:round"/>
            <path data-name="Path 348" d="m95.158 192.666-3.758 5.709 13.369.578-.434-14.453z" transform="translate(-77.531 -167.668)" style="fill:#e27625;stroke:#e27625;stroke-linecap:round;stroke-linejoin:round"/>
            <path data-name="Path 349" d="m129.611 192.61-9.322-8.31-.289 14.6 13.369-.578z" transform="translate(-85.464 -167.613)" style="fill:#e27625;stroke:#e27625;stroke-linecap:round;stroke-linejoin:round"/>
            <path data-name="Path 350" d="m97.6 228.194 8.094-3.9-7.01-5.492z" transform="translate(-79.251 -177.182)" style="fill:#e27625;stroke:#e27625;stroke-linecap:round;stroke-linejoin:round"/>
            <path data-name="Path 351" d="m121.1 224.292 8.021 3.9-1.084-9.394z" transform="translate(-85.769 -177.182)" style="fill:#e27625;stroke:#e27625;stroke-linecap:round;stroke-linejoin:round"/>
        </g>
        <g data-name="Group 194">
            <path data-name="Path 352" d="m129.121 230.3-8.021-3.9.65 5.2-.072 2.24z" transform="translate(-85.769 -179.29)" style="fill:#d5bfb2;stroke:#d5bfb2;stroke-linecap:round;stroke-linejoin:round"/>
            <path data-name="Path 353" d="m97.6 230.3 7.515 3.541-.072-2.24.65-5.2z" transform="translate(-79.251 -179.29)" style="fill:#d5bfb2;stroke:#d5bfb2;stroke-linecap:round;stroke-linejoin:round"/>
        </g>
        <path data-name="Path 354" d="m105.62 212.419-6.72-1.951 4.7-2.168z" transform="translate(-79.612 -174.27)" style="fill:#233447;stroke:#233447;stroke-linecap:round;stroke-linejoin:round"/>
        <path data-name="Path 355" d="m121.7 212.419 1.951-4.119 4.769 2.168z" transform="translate(-85.935 -174.27)" style="fill:#233447;stroke:#233447;stroke-linecap:round;stroke-linejoin:round"/>
        <g data-name="Group 195">
            <path data-name="Path 356" d="m95.187 228.083 1.156-9.683-7.443.217z" transform="translate(-76.838 -177.071)" style="fill:#cc6228;stroke:#cc6228;stroke-linecap:round;stroke-linejoin:round"/>
            <path data-name="Path 357" d="m130.7 218.4 1.084 9.683 6.359-9.467z" transform="translate(-88.432 -177.071)" style="fill:#cc6228;stroke:#cc6228;stroke-linecap:round;stroke-linejoin:round"/>
            <path data-name="Path 358" d="m133.369 203.7-13.369.578 1.228 6.865 1.951-4.119 4.769 2.168z" transform="translate(-85.464 -172.994)" style="fill:#cc6228;stroke:#cc6228;stroke-linecap:round;stroke-linejoin:round"/>
            <path data-name="Path 359" d="m96.82 209.192 4.7-2.168 2.023 4.119 1.228-6.865L91.4 203.7z" transform="translate(-77.531 -172.994)" style="fill:#cc6228;stroke:#cc6228;stroke-linecap:round;stroke-linejoin:round"/>
        </g>
        <g data-name="Group 196">
            <path data-name="Path 360" d="m91.4 203.7 5.564 10.912-.145-5.42z" transform="translate(-77.531 -172.994)" style="fill:#e27525;stroke:#e27525;stroke-linecap:round;stroke-linejoin:round"/>
            <path data-name="Path 361" d="m130.917 209.192-.217 5.42 5.637-10.912z" transform="translate(-88.431 -172.994)" style="fill:#e27525;stroke:#e27525;stroke-linecap:round;stroke-linejoin:round"/>
            <path data-name="Path 362" d="m109.428 204.5-1.228 6.865 1.518 8.166.361-10.767z" transform="translate(-82.191 -173.216)" style="fill:#e27525;stroke:#e27525;stroke-linecap:round;stroke-linejoin:round"/>
            <path data-name="Path 363" d="m119.75 204.5-.65 4.264.289 10.767 1.59-8.166z" transform="translate(-85.214 -173.216)" style="fill:#e27525;stroke:#e27525;stroke-linecap:round;stroke-linejoin:round"/>
        </g>
        <path data-name="Path 364" d="m121.09 213.251-1.59 8.166 1.156.795 6.937-5.492.217-5.42z" transform="translate(-85.325 -175.102)" style="fill:#f5841f;stroke:#f5841f;stroke-linecap:round;stroke-linejoin:round"/>
        <path data-name="Path 365" d="m98.9 211.3.145 5.42 7.01 5.492 1.084-.795-1.518-8.166z" transform="translate(-79.612 -175.102)" style="fill:#f5841f;stroke:#f5841f;stroke-linecap:round;stroke-linejoin:round"/>
        <path data-name="Path 366" d="m115.16 235.341.072-2.24-.65-.506h-8.961l-.578.506.072 2.24L97.6 231.8l2.6 2.168 5.347 3.685h9.105l5.348-3.685 2.6-2.168z" transform="translate(-79.251 -180.788)" style="fill:#c0ac9d;stroke:#c0ac9d;stroke-linecap:round;stroke-linejoin:round"/>
        <path data-name="Path 367" d="m117.439 226.095-1.156-.795h-6.648l-1.084.795-.65 5.2.578-.506h8.961l.65.506z" transform="translate(-82.108 -178.985)" style="fill:#161616;stroke:#161616;stroke-linecap:round;stroke-linejoin:round"/>
        <g data-name="Group 197">
            <path data-name="Path 368" d="m145.019 180.688 2.023-9.756-3.035-9.033-22.907 17.055 8.816 7.443 12.429 3.613 2.746-3.18-1.156-.867 1.879-1.734-1.445-1.156 1.879-1.445z" transform="translate(-85.769 -161.4)" style="fill:#763e1a;stroke:#763e1a;stroke-linecap:round;stroke-linejoin:round"/>
            <path data-name="Path 369" d="m72.9 170.933 2.023 9.756-1.3.939 1.879 1.445-1.445 1.156 1.951 1.734-1.228.867 2.746 3.18 12.5-3.613 8.816-7.443L75.863 161.9z" transform="translate(-72.4 -161.4)" style="fill:#763e1a;stroke:#763e1a;stroke-linecap:round;stroke-linejoin:round"/>
        </g>
        <path data-name="Path 370" d="m145.008 199.413-12.429-3.613 3.758 5.709-5.637 10.912 7.443-.072H149.2z" transform="translate(-88.432 -170.803)" style="fill:#f5841f;stroke:#f5841f;stroke-linecap:round;stroke-linejoin:round"/>
        <path data-name="Path 371" d="m90.221 195.8-12.5 3.613-4.121 12.935h11.056l7.371.072-5.564-10.912z" transform="translate(-72.594 -170.803)" style="fill:#f5841f;stroke:#f5841f;stroke-linecap:round;stroke-linejoin:round"/>
        <path data-name="Path 372" d="m115.507 195.458.795-13.73 3.613-9.828H103.8l3.613 9.828.795 13.73.289 4.336v10.695h6.648v-10.695z" transform="translate(-80.971 -164.174)" style="fill:#f5841f;stroke:#f5841f;stroke-linecap:round;stroke-linejoin:round"/>
    </g>
</svg>
