<svg xmlns="http://www.w3.org/2000/svg" width="29.492" height="29.413" viewBox="0 0 29.492 29.413">
    <g data-name="Group 735">
        <path data-name="Path 368" d="M161.814 315.886a29.22 29.22 0 0 0 9.172 9.167c.361-.374.741-.762 1.116-1.155a4.046 4.046 0 0 1 2.076-1.365 3.255 3.255 0 0 1 3.085.817 97.739 97.739 0 0 1 3.369 3.384 3.272 3.272 0 0 1-.01 4.514 22.933 22.933 0 0 1-2.258 2.159 6.535 6.535 0 0 1-4.036 1.343 15.213 15.213 0 0 1-7.788-2.169 30.228 30.228 0 0 1-12.783-13.233 15.838 15.838 0 0 1-1.7-6.144 6.912 6.912 0 0 1 1.791-5.2c.542-.608 1.135-1.173 1.73-1.731a3.305 3.305 0 0 1 4.608.016q1.663 1.6 3.27 3.256a3.353 3.353 0 0 1-.07 4.793c-.516.515-1.043 1.027-1.572 1.548zm12.381 16.614a4.307 4.307 0 0 0 2.468-.7 23.21 23.21 0 0 0 2.159-1.9 1.089 1.089 0 0 0 .009-1.776c-.967-.981-1.947-1.951-2.919-2.927a1.177 1.177 0 0 0-1.882-.006c-.682.68-1.358 1.366-2.045 2.042a1.122 1.122 0 0 1-1.527.181 31.437 31.437 0 0 1-10.913-10.88 1.158 1.158 0 0 1 .216-1.71c.671-.672 1.35-1.337 2.015-2.015a1.135 1.135 0 0 0 0-1.74q-1.518-1.547-3.055-3.075a1.108 1.108 0 0 0-1.7-.007c-.439.413-.876.826-1.3 1.253a4.806 4.806 0 0 0-1.408 3.909 14.041 14.041 0 0 0 1.667 5.53 28.4 28.4 0 0 0 12.225 12.18 13.959 13.959 0 0 0 5.989 1.647z" transform="translate(-152.038 -305.341)" style="fill:#99b9d9"/>
    </g>
</svg>
