<svg xmlns="http://www.w3.org/2000/svg" width="160" height="160" viewBox="0 0 160 160">
    <defs>
        <linearGradient id="78zndn7cfa" x1=".5" x2=".5" y2="1" gradientUnits="objectBoundingBox">
            <stop offset="0" stop-color="#094a2c"/>
            <stop offset="1" stop-color="#020f08"/>
        </linearGradient>
    </defs>
    <g data-name="Group 9140" transform="translate(-.202 .275)">
        <rect data-name="Rectangle 2" width="160" height="160" rx="80" transform="translate(.202 -.275)" style="fill:url(#78zndn7cfa)"/>
        <g data-name="Group 56">
            <g data-name="Group 54">
                <g data-name="Group 27">
                    <path data-name="Rectangle 1" d="M76.43 0h1.621l.372.009-.051 1.993c-.644-.016-1.3-.025-1.943-.025V0zm3.986.1c.257.013.512.028.768.043H81.651l.589.042h.061l.095.007-.154 1.988a73.55 73.55 0 0 0-1.938-.125L80.416.1zm3.976.31.208.022H84.883q.743.082 1.482.178l-.257 1.977a73.45 73.45 0 0 0-1.929-.225zm3.954.514.315.05H88.802l.154.025.061.01H89.495c.273.047.543.1.814.145l-.36 1.961a72.084 72.084 0 0 0-1.914-.325l.308-1.97zm3.922.72q.68.143 1.357.3H93.704l.023.005h.006l.026.006.453.106-.462 1.94a76.179 76.179 0 0 0-1.894-.425l.411-1.951zm3.878.924.361.1.029.008.024.007h.009l.02.005H96.673l.02.005h.008l.022.006h.005l.025.007c.313.086.623.173.934.263L97.72 3l.023.007h.008l.02.006H97.826l.023.007.208.061-.557 1.937a76.185 76.185 0 0 0-1.869-.524zm3.824 1.127.089.029.026.009h.009l.019.006h.027l.017.005h.011l.02.007h.006l.024.008q.822.269 1.638.557l-.663 1.88a77.88 77.88 0 0 0-1.839-.622zm3.76 1.326q.437.167.871.339l.026.01.025.01.025.01.025.01.026.01.027.011.115.046h.006l.022.009h.009l.018.007h.012l.016.007h.012l.035.03.014.006.014.006.013.005.014.006.015.006.013.005.015.006h.012l.017.007h.008l.019.008h.007l.021.008.4.162-.759 1.855c-.6-.246-1.2-.487-1.8-.717zm3.686 1.522q.912.4 1.812.833l-.857 1.8a71.961 71.961 0 0 0-1.764-.811zm3.6 1.713.442.227h.009l.017.009.011.006.015.008.013.007.013.007.015.008.01.005.017.009h.008l.019.01h.005l.021.011c.385.2.763.4 1.144.607l-.95 1.753a65.39 65.39 0 0 0-1.719-.9zm3.506 1.9.445.259h.006l.017.01.01.006.014.008.014.008.011.006.016.01h.008l.02.012.025.015q.389.229.775.462l.009.006.015.009.016.01.009.005.018.011h.007l.02.012.023.014.225.137-1.04 1.7a74.02 74.02 0 0 0-1.67-.991l1-1.728zm3.4 2.08q.453.293.9.593l.02.013h.005l.017.011.01.007.014.009.012.008.012.008.015.01.009.006.018.012h.006l.024.016.515.349.024.016.021.015h.005l.017.012h.006l-1.127 1.645a75.547 75.547 0 0 0-1.616-1.077zm3.289 2.254.391.285.022.016.022.016.022.016.022.016.136.1.02.014.018.013h.006l.017.013h.007l.016.012.008.006.015.011.009.007.015.011.01.007.014.011.009.007.015.011.009.007.014.011.023.017h.005l.019.014h.007l.018.013.007.005.018.013h.006l.019.014h.006l.019.014h.005l.019.014h.006l.02.015.023.017q.274.206.546.413l-1.194 1.633a73.072 73.072 0 0 0-1.558-1.159zm3.167 2.422.354.287.02.016.017.014.007.006.015.012.01.008.012.01.014.011.009.007.018.015q.53.434 1.051.878l-1.28 1.524a67.1 67.1 0 0 0-1.5-1.239zm3.037 2.583.161.145.02.018.02.018.023.02.01.009.011.01.018.016.019.017.019.017c.34.308.675.617 1.009.931l.016.015.006.006.013.013.009.009.011.011.012.011.008.008.015.014.007.006.017.016.019.018-1.369 1.45c-.469-.442-.95-.885-1.429-1.315zm2.9 2.737q.364.362.724.729l.017.018.007.007.014.014.008.008.013.013.009.009.012.013.009.01.01.01.012.012.008.008.014.014.016.017c.173.178.344.355.515.534l-1.442 1.377c-.445-.466-.9-.933-1.359-1.387zm2.754 2.884.22.243.015.017.006.006.013.015.007.008.012.013.008.009.011.013.01.011.01.011.012.013.008.009.081.091.018.02.017.02.017.019.017.019.018.02.02.022.1.116.019.021.016.018.016.018v.005l.015.017.005.006.015.016.006.007.015.017v.005l.016.018.017.02.019.022.04.046.017.019v.006l.015.017.006.007.014.016.006.007.013.015.007.008.013.015.007.007.014.016.006.007.016.018.018.02.285.329-1.511 1.3c-.42-.488-.853-.978-1.286-1.456l1.477-1.339zm2.6 3.023v.006l.007.009.011.014.007.009.012.015v.006l.014.017.088.108.015.019.014.018.014.018v.005l.015.018.015.019.015.019.016.02.106.131.015.019.014.018v.006l.014.017v.006l.013.017.005.007.013.017v.006l.014.017v.005l.014.018.016.02.048.06.005.006.012.014.007.009.011.014.007.009.011.014.007.009.011.014.007.009.011.014.008.01.01.013.008.01.011.013.008.01.01.013.009.011.009.012.01.013.009.011.007.008.024.031.005.006.011.014.008.01.011.014.007.009.011.014.007.009.012.015.007.009.011.014.008.01.011.014.006.008.012.016v.006l.014.018.3.385-1.577 1.22a70.58 70.58 0 0 0-1.208-1.52l1.545-1.261zm2.44 3.153q.193.264.384.529l.017.024.015.021.014.02v.005l.015.02.015.02.015.02.016.023.036.05.006.008.012.016.007.01.01.014.008.012.009.012.009.012.008.012.009.013.008.011.009.013.008.012.009.013.007.011.01.014.007.01.01.015.005.007.012.017.063.089.016.022.015.021.014.02.014.02.015.021.015.022.016.022.016.023.114.163.014.02v.005l.013.019v.006l.013.018v.006l.012.018v.007l.012.017.006.008.011.016.005.007.012.017.006.008.01.015-1.638 1.137a75.636 75.636 0 0 0-1.128-1.581zm2.273 3.276q.546.833 1.072 1.681l-1.7 1.05a69.78 69.78 0 0 0-1.044-1.638zm2.1 3.39q.351.6.69 1.207l.011.02v.007l.01.019v.007l.01.017.006.01.009.016.006.011.007.013.008.015.006.011.01.019v.007l.014.025.181.327-1.748.96a71.837 71.837 0 0 0-.957-1.689l1.722-1.005zm1.919 3.495c.147.285.291.568.434.855l.012.023.01.02v.007l.009.018v.009l.009.017v.01l.008.016.005.01.008.016.005.011.008.016v.01l.009.017v.008l.009.019c.114.229.227.461.338.691l-1.8.867c-.28-.58-.572-1.164-.867-1.737l1.772-.914zm1.734 3.59q.355.787.693 1.583l.009.022v.009l.007.016.007.016v.01l.009.022.06.143-1.838.772a71.941 71.941 0 0 0-.775-1.78l1.818-.82zm1.543 3.676c.157.4.31.805.46 1.212l.009.024.009.023.008.023v.006l.008.021v.007l.008.021v.006l.008.021v.006l.008.022.009.023.078.214.01.026.01.027.057.16-1.876.674a77.757 77.757 0 0 0-.68-1.818zm1.348 3.753q.312.945.6 1.9l-1.909.575a74.989 74.989 0 0 0-.584-1.852zm1.149 3.818.094.349v.078l.006.021v.006l.007.025q.191.721.369 1.448l-1.937.473a70.9 70.9 0 0 0-.486-1.879l1.924-.524zm.947 3.873q.211.973.4 1.954l-1.959.371c-.12-.633-.25-1.273-.386-1.9l1.949-.422zm.742 3.917.047.3v.219l.1.646V65.555l.067.485-1.976.268a76.524 76.524 0 0 0-.286-1.92zm.536 3.951q.108.989.191 1.985l-1.987.165a73.047 73.047 0 0 0-.186-1.933zm.33 3.974q.021.372.039.745V73.995l-1.993.062c-.02-.645-.049-1.3-.086-1.941zm.125 3.985V76.521c0 .007 0 0 0 0v.177c0 .01 0 0 0 0v.028c0 .01 0 0 0 0 0 .288 0 .575-.008.862v.374l-1.993-.04c.01-.5.015-1.012.015-1.514v-.43zm-2.071 3.9 1.992.091c0 .048 0 .093-.007.141v.789q-.031.529-.068 1.055l-1.989-.142c.007-.642.046-1.294.075-1.938zm-.277 3.874 1.984.194-.04.4v.132q-.076.722-.165 1.441l-1.979-.245c.068-.636.14-1.286.203-1.927zm-.478 3.854 1.972.3c-.061.408-.127.818-.194 1.223V89.635l-.043.244-1.963-.348c.029-.631.135-1.28.231-1.918zm-.679 3.823 1.953.4a79.36 79.36 0 0 1-.425 1.948l-1.942-.451c.148-.632.288-1.27.417-1.901zm-.878 3.782 1.93.5a77.88 77.88 0 0 1-.527 1.923l-1.916-.552c.181-.622.354-1.252.516-1.875zm-1.076 3.73 1.9.6-.008.024-.006.02v.009l-.006.018v.011l-.005.016V99.707l-.005.016v.013l-.005.016v.012l-.005.017v.012l-.006.018v.01l-.007.021v.008l-.007.023v.005l-.008.026q-.249.771-.513 1.535l-1.884-.652c.169-.604.369-1.224.569-1.838zm-1.27 3.669 1.866.7-.132.35-.01.026v.006l-.008.021v.012l-.006.016-.005.013-.005.014-.006.014-.005.014-.006.015v.012l-.007.017v.01l-.007.018v.008l-.008.02v.008l-.008.021c-.16.415-.322.823-.489 1.234l-1.847-.75c.222-.592.457-1.2.686-1.803zm-1.461 3.6 1.827.8-.007.016v.007l-.009.02v.007l-.009.02v.007l-.009.021v.006l-.009.021v.006l-.01.022-.01.023c-.242.55-.488 1.091-.742 1.634l-1.805-.846c.259-.586.528-1.186.786-1.771zm-1.648 3.516 1.783.893-.08.159-.008.016-.006.012-.006.013-.007.014-.006.011-.009.017v.008l-.01.021v.005l-.012.024q-.274.541-.556 1.077l-.012.023-.01.02v.009l-.007.014-.007.014v.007l-.155.292-1.759-.94c.281-.56.582-1.141.87-1.716zm-1.83 3.425 1.733.985-.19.333-.115.2-.014.025c-.225.389-.456.778-.688 1.163l-1.707-1.03c.336-.56.666-1.124.984-1.684zm-2.006 3.325 1.68 1.074-.013.02-.007.012-.008.012-.01.015-.006.009-.012.018-.014.021a76.332 76.332 0 0 1-1.019 1.546l-1.651-1.118c.357-.528.716-1.074 1.063-1.617zm-2.177 3.216 1.621 1.16q-.566.791-1.152 1.568l-.009.012-.006.008-.013.017-1.591-1.2c.391-.523.778-1.049 1.153-1.569zm-2.341 3.1 1.559 1.243-.311.387-.012.014-.007.008-.013.016-.006.007-.014.017v.005l-.014.018-.015.019-.016.02q-.343.423-.692.84l-.152.181-1.526-1.283c.407-.496.82-.996 1.222-1.501zm-2.5 2.973 1.492 1.322c-.418.472-.84.936-1.269 1.4l-.007.008-.008.009-.012.013-.007.007-.014.015-.006.006-.015.017-1.458-1.36c.441-.481.881-.964 1.308-1.446zm-2.65 2.839 1.422 1.4-.351.354-.021.021-.017.018-.006.006-.014.014-.008.008-.012.012-.01.01-.009.009-.012.012-.007.007q-.342.342-.687.679l-.019.019-.018.017-.017.017-.018.017-.017.017-.043.042-.02.02-.02.019-.067.064-1.385-1.434c.443-.437.908-.897 1.36-1.357zm-2.794 2.7 1.348 1.469-.136.124-.017.016-.007.006-.013.012-.011.01-.007.006c-.3.273-.6.546-.909.815l-.016.014-.007.006-.013.012-.01.009-.011.01-.013.011-.009.008-.015.013-.007.006-.019.017-.257.225-1.309-1.5c.48-.429.968-.864 1.443-1.3zm-2.93 2.55 1.27 1.537q-.624.515-1.259 1.018l-.024.019-.023.018-.021.016-.015.012-.03.023-.174.137-1.229-1.57a89.38 89.38 0 0 0 1.51-1.221zm-3.058 2.394 1.188 1.6q-.312.232-.627.46l-.022.016-.02.015h-.005l-.018.013-.008.005-.016.012-.009.007-.015.011-.01.007-.014.01-.011.008-.012.009-.013.009h-.006l-.04.029-.016.011-.009.006-.016.012-.008.006-.017.012-.007.005-.017.012h-.006l-.017.013h-.007l-.018.013h-.006l-.019.013-.019.014-.02.014-.136.1-.019.013h-.006l-.016.011-.009.007-.014.01-.01.007-.014.01-.011.008-.013.009-.012.009-.011.008-.015.011-.009.006-.019.013h-.005l-.228.161-1.146-1.632c.511-.337 1.041-.72 1.558-1.104zm-3.178 2.232 1.1 1.661-.182.12-.023.015h-.005l-.019.012-.008.005-.015.01-.011.007-.01.007c-.465.306-.931.605-1.4.9l-1.059-1.689c.552-.348 1.1-.702 1.637-1.058zm-3.29 2.063 1.015 1.716c-.194.115-.388.228-.583.342l-.019.011h-.007l-.018.01h-.007l-.017.01-.009.005-.016.009-.011.006-.014.008-.014.008-.012.007-.015.009-.011.006-.018.01h-.008l-.024.014q-.459.264-.922.522l-.97-1.742a52.125 52.125 0 0 0 1.685-.961zm-3.393 1.889.924 1.767h-.006l-.011.006-.015.008-.014.007-.012.006-.02.01h-.006q-.841.439-1.695.857l-.877-1.79a88.38 88.38 0 0 0 1.738-.881zm-3.486 1.709.83 1.813-.521.236-.025.011-.024.011-.026.012-.1.044h-.007l-.014.006-.014.006h-.011l-.017.008h-.01l-.017.008h-.011l-.017.008h-.01l-.018.008h-.01l-.019.008h-.009l-.018.008h-.009l-.02.009h-.007l-.022.01h-.006l-.024.011-.027.012-.113.05-.024.01-.023.01h-.007l-.02.009h-.009l-.018.008h-.011l-.016.007h-.011l-.016.007-.013.006-.013.006-.015.007h-.011l-.018.008h-.007l-.021.009-.422.182-.782-1.834c.575-.192 1.169-.456 1.758-.724zm-3.571 1.523.734 1.854q-.926.367-1.863.71l-.684-1.883a80.289 80.289 0 0 0 1.818-.691zM100.172 147l.636 1.89q-.663.223-1.331.434l-.025.008h-.005l-.022.007h-.008l-.018.006h-.025l-.017.005-.444.138-.586-1.906a45.696 45.696 0 0 0 1.845-.582zm-3.711 1.14.539 1.921-.319.088h-.006l-.021.006H96.572l-.019.005h-.009l-.021.006h-.008l-.024.006-.027.007q-.691.187-1.387.362l-.485-1.934a28.343 28.343 0 0 0 1.869-.467zm-3.766.944.434 1.946-.389.086h-.158l-.023.005h-.006l-.025.005h-.006l-.024.005h-.006l-.025.005h-.005l-.025.005-.025.005H92.4l-.025.005-.026.006-.028.006-.028.006-.028.006-.028.006-.121.025H91.771l-.025.005-.026.005-.316.063h-.189l-.383-1.957c.595.036 1.234-.098 1.862-.238zm-3.81.745.331 1.966-.122.02H88.746l-.233.037H88.059l-.431.064H87.316l-.051.007-.28-1.974c.615.087 1.264-.013 1.899-.12zm-3.844.545.228 1.981-.389.044H84.683q-.7.075-1.395.137l-.177-1.986a34.038 34.038 0 0 0 1.929-.177zm-3.868.344.125 1.99q-.558.035-1.118.062h-.874l-.074-1.992c.644.012 1.297-.02 1.939-.061zm-5.827.141c.36.005.725.008 1.086.008h.86l.023 1.994H75.318zm-3.881-.155c.643.042 1.3.077 1.94.1l-.08 1.992q-.858-.034-1.711-.087h-.28zm-3.867-.356c.639.076 1.289.144 1.931.2l-.182 1.985c-.244-.022-.485-.046-.728-.07h-.227l-.355-.038H67.706l-.339-.039zm-3.843-.556c.635.109 1.28.211 1.918.3l-.286 1.973q-.463-.067-.924-.14H63.885l-.46-.077zm-3.808-.757c.628.142 1.267.278 1.9.4l-.388 1.956-.03-.006-.026-.005H61.292l-.026-.005c-.35-.071-.7-.143-1.046-.218l-.025-.005H60.029l-.024-.005H60l-.028-.006-.455-.1zm-3.763-.955c.62.175 1.251.344 1.875.5l-.491 1.933-.483-.124-.03-.008-.029-.008-.059-.016-.15-.04-.028-.007h-.006l-.024-.006h-.007l-.022-.006h-.01l-.019-.005h-.01l-.019-.005h-.01l-.019-.005H56.357l-.043-.012h-.006l-.02-.005h-.01l-.021-.006h-.008l-.021-.006h-.008l-.02-.005h-.009l-.021-.006h-.008l-.022-.006h-.007l-.022-.006h-.007l-.022-.006h-.007l-.023-.006h-.005l-.024-.007-.025-.007-.027-.007-.331-.198zm-3.708-1.152c.61.207 1.231.409 1.846.6l-.591 1.9-.476-.15-.025-.008-.016-.005h-.012l-.021-.007h-.006l-.024-.008-.026-.008-.027-.009c-.277-.089-.556-.18-.832-.272h-.005l-.019-.006h-.01l-.015-.005h-.027l-.017-.006h-.01l-.02-.007h-.008l-.022-.007h-.006l-.024-.008-.234-.079zm-3.642-1.345c.6.239 1.208.473 1.812.7l-.691 1.87-.186-.069-.026-.01-.025-.009h-.005l-.022-.008h-.006l-.022-.008h-.006l-.048-.018h-.013l-.016-.006h-.012l-.022-.025h-.012l-.016-.006h-.012l-.017-.006h-.013l-.016-.006h-.013l-.016-.006h-.013l-.015-.006h-.013l-.015-.006-.014-.005-.014-.005-.014-.005-.014-.005-.014-.005-.014-.005-.014-.005h-.013l-.017-.006h-.006c-.384-.146-.77-.3-1.151-.449zm-3.566-1.534c.585.27 1.181.536 1.773.791l-.788 1.832-.529-.23-.022-.01h-.005l-.021-.009h-.007l-.019-.008h-.009l-.018-.008h-.011l-.016-.007h-.011l-.016-.007-.013-.006-.014-.006-.02-.009h-.007l-.056-.025h-.006l-.022-.01h-.007l-.024-.037h-.008l-.02-.009h-.009l-.018-.008h-.01l-.018-.008h-.009l-.019-.008h-.01l-.019-.008h-.009l-.019-.008h-.01l-.019-.009h-.008l-.021-.009h-.008l-.021-.01h-.006l-.027-.012-.056-.025h-.007l-.021-.009h-.008l-.02-.059h-.01l-.018-.008h-.01l-.017-.008-.012-.005-.015-.007-.012-.006-.014-.006-.013-.006-.014-.007-.013-.006-.014-.006-.014-.006-.013-.006-.014-.006-.013-.006-.014-.006-.013-.006-.018-.017h-.011l-.037-.017h-.005l-.016-.007-.011-.005-.016-.007h-.011l-.015-.007-.012-.006-.014-.006-.014-.006-.013-.006-.015-.007-.013-.006-.014-.007-.013-.006-.015-.007-.013-.006-.015-.007-.012-.006-.015-.007h-.008zm-3.481-1.719c.57.3 1.152.6 1.73.882L42.63 145l-.446-.222-.111-.056-.026-.013h-.007l-.019-.009-.013-.007-.013-.007-.015-.008-.01-.005-.017-.009h-.009l-.018-.009h-.008l-.019-.01h-.007l-.02-.01-.022-.011-.56-.288-.019-.01h-.008l-.016-.008-.012-.006-.014-.007-.013-.007-.012-.006-.016-.008-.01-.005-.019-.01h-.007l-.024-.012-.248-.13zm-3.387-1.9c.554.33 1.119.657 1.681.972l-.981 1.738-.315-.177-.024-.014-.023-.013-.023-.013-.023-.013-.2-.113-.023-.013-.022-.013-.022-.013-.021-.012-.022-.013c-.317-.182-.63-.366-.944-.552l-.023-.014-.013-.008zm-3.283-2.073a78.06 78.06 0 0 0 1.628 1.058l-1.068 1.685-.42-.267h-.006l-.02-.013-.008-.005-.016-.011-.011-.007-.014-.009-.013-.008-.011-.007-.015-.01-.01-.006-.016-.01-.008-.005-.017-.011h-.007l-.019-.012-.021-.014-.169-.109-.023-.015-.023-.015-.024-.015-.24-.157-.024-.015-.023-.015-.022-.015-.022-.015-.286-.189-.17-.113zm-3.171-2.242c.516.386 1.045.77 1.571 1.141l-1.151 1.628q-.416-.294-.829-.595l-.022-.016-.02-.014-.019-.014-.018-.013h-.006l-.018-.013-.019-.014-.159-.117-.022-.016-.022-.016-.022-.016-.412-.305zm-3.051-2.4c.5.412 1 .823 1.51 1.222l-1.238 1.563-.014-.011-.019-.015h-.006l-.015-.012-.011-.009-.011-.009-.016-.013h-.006q-.733-.579-1.45-1.176zm-2.922-2.559c.474.437.96.874 1.444 1.3l-1.314 1.5-.034-.03-.166-.146-.007-.006-.014-.012-.009-.008-.012-.011-.011-.01-.011-.009-.012-.01-.01-.009-.014-.012-.008-.007-.015-.013-.007-.006-.018-.016q-.383-.34-.762-.685l-.02-.018-.018-.016-.006-.005-.014-.013-.009-.008-.008-.007-.289-.265zm-2.785-2.707c.45.461.913.922 1.375 1.371l-1.39 1.43q-.246-.239-.489-.479l-.02-.02-.019-.019-.018-.018-.018-.018-.02-.02-.022-.022-.017-.017-.012-.012-.009-.009-.014-.014-.007-.007-.015-.015-.006-.006-.016-.016-.016-.016-.017-.017-.017-.017a84.15 84.15 0 0 1-.421-.424l-.018-.018-.016-.017-.014-.015-.008-.008-.013-.013-.009-.009-.011-.012-.012-.012-.009-.009-.085-.087zm-2.645-2.849c.426.484.864.968 1.3 1.441l-1.462 1.356-.219-.237-.018-.02-.017-.018-.016-.017-.006-.006-.014-.015-.02-.022-.017-.018-.017-.018-.019-.02-.019-.021-.02-.022q-.462-.506-.915-1.02zm-2.49-2.981c.4.505.813 1.012 1.226 1.506l-1.53 1.278-.317-.382v-.006l-.019-.015-.007-.008-.012-.014-.009-.01-.01-.012-.01-.013-.008-.009-.012-.014-.006-.008-.013-.015-.005-.006-.014-.017-.142-.174-.017-.021-.017-.021-.036-.044L17 124.5l-.012-.014-.008-.009-.01-.013-.009-.011-.009-.011-.011-.014-.006-.008-.013-.017v-.006l-.015-.019-.018-.023q-.2-.243-.389-.487zm-2.332-3.106c.373.525.759 1.053 1.146 1.568l-1.594 1.2q-.461-.614-.91-1.237l-.012-.017v-.005l-.019-.022-.017-.023-.217-.3zm-2.167-3.222c.345.544.7 1.091 1.063 1.625l-1.655 1.113c-.31-.461-.619-.931-.919-1.4l-.011-.017-.006-.009-.009-.014-.007-.012-.01-.016-.009-.014-.006-.01-.011-.017-.005-.008-.012-.018v-.006l-.014-.021-.066-.1zm-2-3.331c.317.561.645 1.126.976 1.678l-1.71 1.025-.171-.287v-.006l-.008-.014-.007-.012-.007-.012-.009-.015-.006-.01-.01-.016-.005-.009-.01-.018v-.008l-.01-.017-.005-.009-.011-.019v-.007l-.012-.021v-.005l-.013-.022-.014-.024-.11-.187-.015-.026-.015-.025-.015-.025-.015-.025-.015-.026-.093-.16-.013-.022v-.006l-.011-.02v-.007l-.011-.019v-.008l-.01-.018v-.009l-.01-.018v-.008l-.01-.017-.005-.009-.01-.017-.006-.01-.009-.015-.007-.011-.007-.013-.05-.087-.012-.021-.012-.021-.061-.053-.013-.024-.161-.284zm-1.819-3.431c.287.577.585 1.158.887 1.727l-1.761.934q-.182-.343-.361-.689l-.012-.024-.012-.023-.012-.022v-.005l-.011-.022-.011-.022v-.006l-.011-.022-.012-.023-.056-.109v-.006l-.011-.021v-.008l-.009-.019-.005-.01-.009-.017-.006-.011-.008-.015-.006-.012-.008-.015-.006-.011-.008-.016-.006-.011-.008-.016-.028-.035-.008-.015-.006-.012-.008-.015-.006-.011-.009-.017v-.01l-.012-.024-.013-.027v-.01l-.009-.017v-.009l-.009-.018v-.009l-.009-.018v-.009l-.009-.018-.005-.01-.009-.017v-.009l-.009-.019v-.009l-.01-.019v-.008l-.01-.02v-.007l-.012-.024-.1-.195zM8.1 106.007c.256.591.524 1.187.8 1.771l-1.808.841-.179-.388-.007-.016-.006-.013-.006-.013-.007-.015-.005-.012-.008-.017v-.009l-.009-.019v-.008l-.01-.021v-.006l-.01-.022v-.005l-.011-.025-.14-.311-.012-.027-.012-.028-.012-.028-.012-.027-.075-.169v-.007l-.009-.02v-.01l-.007-.016-.006-.013-.006-.014-.006-.015-.005-.011-.008-.017v-.01l-.008-.019v-.007l-.009-.021v-.005l-.01-.023-.184-.42zm-1.45-3.6c.225.6.461 1.213.7 1.81l-1.85.745-.148-.37-.008-.021v-.008l-.007-.018v-.01l-.006-.016-.005-.013-.005-.014-.006-.016v-.01l-.008-.019v-.009l-.008-.021v-.007l-.009-.023v-.005q-.25-.637-.489-1.279zm-1.258-3.673c.193.615.4 1.235.605 1.845l-1.886.647-.075-.226-.007-.022v-.008l-.006-.018V100.924L4 100.908v-.013l-.006-.018v-.01l-.007-.021v-.007l-.008-.024q-.228-.678-.444-1.361l-.009-.029-.009-.028-.017-.035-.008-.025zM4.328 95a72 72 0 0 0 .508 1.874l-1.917.546-.3-1.089-.01-.031-.009-.026-.007-.028-.008-.028-.007-.026-.008-.029-.007-.026-.008-.037-.007-.028q-.076-.286-.149-.572zm-.867-3.785c.127.632.265 1.27.408 1.9l-1.944.445c-.083-.361-.162-.72-.24-1.084l-.006-.026v-.196l-.005-.024v-.005q-.064-.3-.125-.61zm-.667-3.825c.094.638.2 1.283.308 1.917l-1.964.342-.073-.429V88.814L1 88.8V88.572l-.015-.092V88.083l-.019-.123-.028-.185v-.062zm-.466-3.855c.061.642.131 1.291.208 1.931L.557 85.7a22.67 22.67 0 0 1-.031-.258V85.21l-.041-.37V84.366q-.033-.32-.063-.64zm-.265-3.875c.028.644.064 1.3.108 1.939l-1.989.136-.027-.4V81.249Q.1 80.5.071 79.745zM0 75.756l2 .017v.657c0 .428 0 .861.011 1.289l-1.994.034v-.335q0-.385-.006-.771H0v-.272c0-.011 0 0 0 0v-.613zm.14-3.985 1.99.12c-.039.643-.069 1.3-.092 1.94l-1.992-.068q.02-.593.05-1.183v-.328l.027-.481zM.482 67.8l1.981.223c-.072.64-.136 1.29-.192 1.932l-1.986-.172v-.197c.042-.473.088-.943.139-1.414V68.086q.042-.148.058-.286zm.548-3.95 1.97.325a94.41 94.41 0 0 0-.292 1.919L.73 65.82q.1-.727.215-1.449v-.225l.047-.288zm.754-3.915 1.947.428c-.138.629-.27 1.269-.392 1.9l-1.958-.377.084-.428.005-.026V60.993l.028-.138.005-.026v-.03l.005-.024.005-.024V60.67l.005-.024.005-.024v-.006l.005-.024v-.005l.005-.024v-.005l.005-.025.006-.026q.06-.284.122-.566zm.959-3.87 1.922.53a71.943 71.943 0 0 0-.491 1.878l-1.935-.479v-.037q.167-.671.345-1.338l.007-.025.006-.022v-.008l.005-.019V56.489l.005-.019v-.009l.007-.024q.08-.193.129-.372zM3.9 52.25l1.892.63c-.2.611-.4 1.234-.59 1.85L3.3 54.149q.291-.956.605-1.9zm1.364-3.75 1.856.729a79.51 79.51 0 0 0-.686 1.816l-1.874-.68q.159-.439.324-.876l.009-.023v-.008l.007-.02v-.01l.007-.018v-.01l.007-.018v-.011l.007-.018v-.011l.007-.018v-.011l.007-.018v-.01l.007-.019v-.01l.007-.018v-.01l.007-.017V49.2L5 49.176v-.008l.009-.024.011-.028v-.008l.008-.02v-.011l.007-.018v-.01l.007-.018v-.013L5.07 49l.005-.014.005-.014.006-.014.005-.014.005-.014.005-.014.005-.014.005-.014.005-.014.006-.015.005-.013.006-.015.005-.013.006-.014.005-.014.005-.013.006-.016v-.009l.007-.019.041-.106.01-.025.01-.025.01-.026.01-.027zm1.554-3.67 1.815.825a71.954 71.954 0 0 0-.78 1.778l-1.836-.777q.1-.244.208-.487l.011-.025v-.007l.009-.02v-.011l.007-.016.006-.014.006-.013.007-.015.005-.012.008-.017v-.008l.009-.02v-.006l.01-.022.011-.025c.147-.337.3-.671.447-1.006l.01-.022v-.007l.008-.018.005-.011.007-.015.006-.013v-.007zm1.745-3.585 1.769.919c-.3.572-.591 1.155-.872 1.734l-1.793-.873q.433-.897.896-1.78zm1.93-3.489 1.719 1.01c-.327.556-.65 1.123-.962 1.687l-1.75-.965c.321-.581.652-1.16.988-1.732zm2.11-3.384 1.664 1.1a78.05 78.05 0 0 0-1.049 1.634l-1.692-1.056q.3-.475.6-.946l.014-.022.014-.021v-.005l.013-.02v-.006l.022-.03h.006l.011-.017.005-.008.011-.017.006-.009.044-.069.013-.021.014-.022.015-.023.28-.428zm2.282-3.272 1.6 1.184a69.78 69.78 0 0 0-1.132 1.578l-1.635-1.142q.348-.5.7-.99l.016-.022.015-.02.015-.02v-.005l.015-.02.015-.02v-.005l.015-.021.018-.024.005-.007.012-.017.01-.014.007-.009.012-.016.006-.008.012-.016.006-.008.012-.016.006-.008.013-.017v-.005l.014-.019zm2.45-3.146 1.541 1.265c-.409.5-.817 1.008-1.213 1.517l-1.573-1.222q.379-.487.765-.967l.017-.021.017-.021q.221-.274.443-.545zm2.61-3.015 1.473 1.344c-.434.476-.868.965-1.29 1.452l-1.507-1.3.04-.047.018-.02v-.005l.015-.017.007-.008.013-.015.007-.008.012-.013.009-.01.01-.012.01-.011.009-.011.011-.012.008-.009.012-.014.11-.126.019-.021q.482-.55.974-1.089l.018-.02zm2.762-2.875 1.4 1.418c-.458.453-.917.918-1.364 1.383l-1.438-1.381.063-.066.016-.017.007-.007.013-.014.008-.009.01-.011.012-.013c.224-.232.451-.464.677-.693l.019-.019.019-.019q.27-.272.543-.542zm2.908-2.728 1.326 1.489c-.481.429-.963.869-1.433 1.31l-1.364-1.454.227-.212.02-.019.017-.016.007-.007.014-.013.008-.007.014-.013.009-.008.012-.011.01-.009.011-.01.012-.011.01-.009.012-.011.01-.009.073-.068.018-.016.017-.016.017-.016.018-.016.018-.016.019-.017.188-.172.019-.018.019-.018.057-.048.018-.017.019-.017.076-.069.007-.006.013-.011.009-.008.012-.011.011-.01.01-.009.013-.012.008-.007.016-.014.006-.005.017-.015h.005l.02-.018zm3.045-2.574 1.247 1.556c-.5.4-1.007.818-1.5 1.234l-1.287-1.52.013-.011.012-.01.013-.011.015-.013q.644-.543 1.3-1.073l.019-.016.018-.014h.006l.017-.014.018-.014.018-.015zm3.175-2.412L33 15.971a73.07 73.07 0 0 0-1.561 1.155l-1.206-1.588h.006l.011-.008.013-.01.01-.008.014-.01.011-.008.013-.01.01-.008.014-.01.01-.007.054-.041h.006l.015-.011.009-.007.015-.011.009-.007.014-.01.011-.008.013-.01.012-.009.012-.009.013-.01.011-.008.013-.01.01-.007.015-.011.01-.007.017-.012h.007l.019-.014h.006l.1-.074.049-.037q.515-.412 1.049-.794zm3.3-2.244 1.079 1.677c-.542.349-1.086.709-1.619 1.072l-1.122-1.648q.291-.2.584-.394h.005l.017-.011.008-.005.016-.011.009-.006.015-.01.011-.007.014-.009.012-.008.012-.008.013-.009.012-.008.014-.009.01-.007.017-.011.008-.006.1-.067.023-.015.023-.015.022-.015.024-.016.024-.016.024-.016.26-.17.261-.169.024-.016.023-.015.022-.014.021-.014zm3.408-2.069.99 1.731c-.559.32-1.122.652-1.673.986l-1.035-1.7.48-.289.025-.015.023-.014.022-.013.023-.014.023-.014.024-.014.106-.063.025-.015.024-.014.021-.013h.006l.02-.012h.006l.02-.012h.006l.021-.012h.005l.022-.013.025-.015.134-.078.024-.014.022-.013h.005l.063-.055h.006l.02-.012h.007l.019-.011h.008l.019-.011h.008l.018-.01.009-.005.017-.01.009-.005.018-.011h.008l.026-.015h.006l.019-.011.017-.01.009-.005.018-.01h.007l.018-.011h.007l.02-.012.022-.013.024-.014zm3.507-1.886.9 1.78c-.575.29-1.154.592-1.722.9l-.944-1.756.134-.075.022-.012h.008l.016-.008.013-.007h.009l.019-.01c.374-.2.748-.395 1.125-.588l.015-.008.014-.007.024-.012.026-.013zm3.606-1.7.8 1.825c-.59.26-1.184.531-1.767.806l-.851-1.8q.534-.252 1.073-.5l.027-.012.028-.013.084-.038.011-.005.016-.007.023-.007h.01l.019-.008h.008l.021-.009h.006l.021-.01h.005l.024-.011.025-.011.414-.184zm3.69-1.511.706 1.86c-.6.228-1.21.468-1.806.712l-.755-1.845q.46-.189.924-.371l.025-.01h.006l.02-.008h.011l.016-.006.014-.005h.012l.018-.007h.006l.023-.009c.26-.115.52-.215.78-.313zm3.764-1.317.608 1.9c-.613.2-1.233.4-1.841.616l-.657-1.882h.005c.258-.09.515-.178.774-.266l.026-.009.026-.009.027-.009.026-.009.026-.009.158-.053h.008l.018-.006h.011l.015-.005h.043l.015-.005H52.512l.015-.005h.013l.015-.005h.013l.032-.077H52.626l.017-.006h.009l.02-.007.441-.143zm3.828-1.115.507 1.928c-.623.164-1.252.338-1.871.518l-.558-1.914q.724-.211 1.455-.408l.024-.007h.007l.02-.005h.055l.023-.02zm3.881-.908.405 1.952c-.631.131-1.269.272-1.9.419l-.456-1.941a53.555 53.555 0 0 1 1.951-.43zm3.924-.712.3 1.971c-.637.1-1.281.205-1.915.32l-.354-1.962.328-.058H63.659l.174-.029c.3-.05.6-.1.9-.144zM68.7.386l.2 1.984c-.642.064-1.291.138-1.93.219L66.718.611Q67.558.5 68.4.416H68.578L68.6.4h.033zm3.977-.3.1 1.992c-.644.031-1.3.071-1.939.119L70.686.213h.209c.283-.02.566-.039.851-.056h.662zM76.43 0v1.994c-.57 0-1.148.007-1.717.019L74.668.02q.658-.015 1.318-.02h.444z" style="fill:#275740" transform="translate(3.669 3.669)"/>
                </g>
                <g data-name="Group 31">
                    <path data-name="Rectangle 1" d="M72.181 2.3A70.406 70.406 0 0 0 58.1 3.723a69.481 69.481 0 0 0-24.986 10.513 70.088 70.088 0 0 0-25.32 30.746A69.509 69.509 0 0 0 3.723 58.1a70.581 70.581 0 0 0 0 28.17 69.481 69.481 0 0 0 10.513 24.982 70.089 70.089 0 0 0 30.746 25.32 69.509 69.509 0 0 0 13.118 4.067 70.406 70.406 0 0 0 14.085 1.42h.768a70.406 70.406 0 0 0 14.085-1.42 69.481 69.481 0 0 0 24.982-10.513 70.089 70.089 0 0 0 25.32-30.746 69.51 69.51 0 0 0 4.071-13.114 70.582 70.582 0 0 0 0-28.17 69.48 69.48 0 0 0-10.513-24.982 70.089 70.089 0 0 0-30.746-25.32 69.509 69.509 0 0 0-13.118-4.071A70.406 70.406 0 0 0 72.949 2.3h-.768m0-2.3h.768a72.181 72.181 0 0 1 0 144.362h-.768A72.181 72.181 0 0 1 72.181 0z" transform="translate(7.743 7.918)" style="fill:#6da78b"/>
                </g>
                <path data-name="Path 86" d="M10.1 7.894c-.02 2.754-1.5 3.867-4.062 2.978A8.7 8.7 0 0 1 .151 4.246 3.437 3.437 0 0 1 1.1.591c1.063-.9 2.234-.614 3.44-.175a8.217 8.217 0 0 1 5.56 7.478z" transform="rotate(58 .265 96.047)" style="fill:#9eebc6"/>
                <path data-name="Path 87" d="M10.73 8.384c-.021 2.925-1.591 4.108-4.315 3.163A9.239 9.239 0 0 1 .16 4.509a3.651 3.651 0 0 1 1-3.881C2.292-.331 3.536-.024 4.817.442a8.727 8.727 0 0 1 5.913 7.942z" transform="rotate(90 22.912 74.182)" style="fill:#9eebc6"/>
                <path data-name="Path 88" d="M11.994 9.371c-.023 3.269-1.779 4.592-4.823 3.536A10.328 10.328 0 0 1 .179 5.041 4.081 4.081 0 0 1 1.3.7C2.562-.369 3.953-.026 5.384.494a9.755 9.755 0 0 1 6.61 8.877z" transform="rotate(165 45.073 44.966)" style="fill:#9eebc6"/>
                <path data-name="Path 92" d="M7.189 7.614a8.071 8.071 0 0 1-4.445-1.157C1.213 5.48-.5 4.343.136 2.239.758.176 2.848.081 4.631.006A6.7 6.7 0 0 1 8.36.973c1.64.996 3.49 2.162 2.84 4.383-.584 2.021-2.631 2.179-4.011 2.258z" transform="rotate(44.03 -48.125 131.809)" style="fill:#9eebc6"/>
                <path data-name="Path 94" d="M3.229 3.324A3.387 3.387 0 0 1 .363 2.046C-.234 1.293-.1.663.8.242A3.716 3.716 0 0 1 4.965 1.4a1.032 1.032 0 0 1 .154 1.172 2.006 2.006 0 0 1-1.89.752z" transform="rotate(99 4.743 66.295)" style="fill:#9eebc6"/>
                <g data-name="Group 32">
                    <path data-name="Path 59" d="M6.709 5.427c-.139 1.1-.624 1.856-2.044 1.723C2.393 6.937-.234 3.925.017 1.675a1.623 1.623 0 0 1 2-1.655 6.056 6.056 0 0 1 4.692 5.407z" transform="rotate(9 -286.084 444.212)" style="fill:#9eebc6"/>
                </g>
                <path data-name="Subtraction 39" d="M729.107 417.831a2.613 2.613 0 0 1-1.679-.663 1084.198 1084.198 0 0 1-10.27-8.754l-13.786-11.836a9.315 9.315 0 0 1-3.125-10.237A8.882 8.882 0 0 1 708.73 380c10.247-.384 17.624-4.92 21.926-13.49a23.542 23.542 0 0 0-.161-21.54 23.886 23.886 0 0 0-17.709-12.824 34.878 34.878 0 0 0-5.358-.416l-41.665-.027a2.836 2.836 0 0 1-2.509-1.193 2.336 2.336 0 0 1 .01-2.329 2.4 2.4 0 0 1 2.519-1.354l20.462.183h2.655c2.432 0 5-.036 7.064-.065 2.175-.031 4.64-.067 7-.067 3.185 0 5.825.063 8.309.2 13.887.758 26.153 13.044 26.781 26.829.7 15.34-9.483 28.164-24.217 30.493-.537.084-1.086.118-1.612.154h-.071a18.655 18.655 0 0 0-2.8.323 6.088 6.088 0 0 0-4.1 2.691c-1.108 2.109.614 4.6 1.627 5.474 5.613 4.884 11.319 9.771 16.837 14.5l.614.526 4.623 3.958.554.468.016.014.013.01c.368.307.747.621 1.094.959a2.432 2.432 0 0 1 .325 3.425 4.603 4.603 0 0 1-.067.077 2.367 2.367 0 0 1-1.783.852z" transform="translate(-618.504 -290.996)" style="fill:#fff"/>
                <path data-name="Subtraction 38" d="M690.007 408.065a1.4 1.4 0 0 1-1.12-.53 3.479 3.479 0 0 1-.874-1.732l-.042-5.367v-.036c-.092-10.75-.183-21.865.081-32.768.287-11.762 9.985-22.253 21.627-23.386 2.955-.287 6.119-.425 10.26-.447l2.32.084a1.831 1.831 0 0 1 1.37.551 2.545 2.545 0 0 1 .625 1.868 2.059 2.059 0 0 1-2.312 2.1l-3.978.044-3.174-.018c-13.308 0-22.252 8.907-22.255 22.16v34.862a2.158 2.158 0 0 1-1.368 2.33 3.007 3.007 0 0 1-1.16.285z" transform="translate(-640.029 -281.231)" style="fill:#fff"/>
            </g>
        </g>
    </g>
</svg>
