<svg xmlns="http://www.w3.org/2000/svg" width="32.205" height="32.205" viewBox="0 0 32.205 32.205">
    <g data-name="Group 9135">
        <path data-name="Path 554" d="M3375.226 130.726h-14.011a4.009 4.009 0 0 0-4 4v7.335a4.009 4.009 0 0 0 4 4h14.011a4.009 4.009 0 0 0 4-4v-7.335a4.009 4.009 0 0 0-4-4zm-6.387 9.834-3.414 2.112v-8.448l3.414 2.112 3.414 2.112z" transform="translate(-3352.118 -122.288)" style="fill:#99b9d9"/>
        <path data-name="Rectangle 52" d="M3-.5h25.205a3.5 3.5 0 0 1 3.5 3.5v25.205a3.5 3.5 0 0 1-3.5 3.5H3a3.5 3.5 0 0 1-3.5-3.5V3A3.5 3.5 0 0 1 3-.5zm25.205 31.205a2.5 2.5 0 0 0 2.5-2.5V3a2.5 2.5 0 0 0-2.5-2.5H3A2.5 2.5 0 0 0 .5 3v25.205a2.5 2.5 0 0 0 2.5 2.5z" transform="translate(.5 .5)" style="opacity:.052;fill:#99b9d9"/>
    </g>
</svg>
