<svg xmlns="http://www.w3.org/2000/svg" width="160" height="160" viewBox="0 0 160 160">
    <g data-name="Group 9141">
        <g data-name="Rectangle 894" style="stroke:#e2e2e2;stroke-width:2px;stroke-dasharray:4;fill:none">
            <rect width="160" height="160" rx="80" style="stroke:none"/>
            <rect x="1" y="1" width="158" height="158" rx="79" style="fill:none"/>
        </g>
        <g data-name="#ff0000ff">
            <path data-name="Path 8015" d="M38.235 1.149C44.991 1.009 51.75 1.1 58.5 1.3c4.721.174 9.453.332 14.148.884a16.571 16.571 0 0 1 4.891 1.149A10.043 10.043 0 0 1 83.09 10a71.408 71.408 0 0 1 1.678 14.17A124.392 124.392 0 0 1 83.3 47.242a9.868 9.868 0 0 1-5.464 7.5 15.031 15.031 0 0 1-4.864 1.23c-4.273.513-8.578.7-12.879.859q-16.983.625-33.982-.132a92.128 92.128 0 0 1-11.883-1.119 10.111 10.111 0 0 1-7.678-7.07A63.172 63.172 0 0 1 4.9 36.4a128.608 128.608 0 0 1 1.355-25.319 9.846 9.846 0 0 1 5.779-7.726 22.112 22.112 0 0 1 6.4-1.295c6.581-.62 13.2-.77 19.8-.912m-1.44 15.938v24.018q10.383-5.993 20.755-12.009-10.381-6.002-20.755-12.009z" transform="translate(35.208 50.906)" style="fill:red"/>
        </g>
        <g data-name="#ffffffff">
            <path data-name="Path 8023" d="M167.024 82.16q10.383 5.993 20.755 12.009-10.38 6-20.755 12.009-.003-12.009 0-24.018z" transform="translate(-95.023 -14.168)" style="fill:#fff"/>
        </g>
    </g>
</svg>
